<svg width="793" height="552" viewBox="0 0 793 552" fill="none" xmlns="http://www.w3.org/2000/svg">
<g>
<path d="M89.8533 134.42C117.35 122.724 151.598 130.134 185.044 135.277C185.355 129.049 189.128 121.469 185.176 117.124C180.375 111.845 180.817 106.299 183.706 100.721C191.094 86.4555 180.509 71.2768 169.822 58.6558C167.413 55.8176 164.369 53.5875 160.936 52.1467C157.503 50.706 153.779 50.0952 150.066 50.364L130.269 51.7781C125.451 52.1222 120.854 53.9294 117.092 56.9579C113.329 59.9863 110.581 64.0915 109.216 68.7243V68.7243C104.489 75.1535 101.959 81.5648 103.552 87.9428C96.471 92.7817 95.2813 98.6226 98.4631 105.207C101.161 109.353 101.132 113.389 98.3404 117.313C94.6736 122.316 91.8652 127.894 90.0302 133.819L89.8533 134.42Z" fill="#2F2E41"/>
<path d="M743.29 488.963H182.872C177.888 488.963 173.109 486.983 169.585 483.459C166.061 479.935 164.081 475.156 164.081 470.172C367.232 446.562 566.566 446.562 762.081 470.172C762.081 475.156 760.101 479.935 756.577 483.459C753.053 486.983 748.274 488.963 743.29 488.963Z" fill="#2F2E41"/>
<path d="M762.081 471.277L164.081 470.172L233.387 353.556L233.719 353.004V95.9964C233.718 92.8769 234.333 89.7878 235.526 86.9057C236.72 84.0236 238.47 81.4049 240.676 79.1991C242.881 76.9932 245.5 75.2435 248.382 74.0498C251.264 72.8562 254.353 72.2419 257.473 72.2422H665.373C668.493 72.2419 671.582 72.8562 674.464 74.0498C677.346 75.2435 679.965 76.9932 682.17 79.1991C684.376 81.4049 686.126 84.0236 687.32 86.9057C688.513 89.7878 689.128 92.8769 689.127 95.9964V354.772L762.081 471.277Z" fill="#3F3D56"/>
<path d="M256.931 88.8225C254.88 88.8248 252.913 89.6408 251.463 91.0913C250.012 92.5419 249.196 94.5086 249.194 96.56V330.896C249.196 332.948 250.012 334.915 251.463 336.365C252.913 337.816 254.88 338.632 256.931 338.634H669.231C671.282 338.631 673.249 337.815 674.699 336.365C676.15 334.914 676.966 332.948 676.968 330.896V96.56C676.966 94.5086 676.15 92.542 674.699 91.0914C673.249 89.6409 671.282 88.8249 669.231 88.8225H256.931Z" fill="white"/>
<path d="M258.659 369.584C258.025 369.585 257.405 369.767 256.871 370.109C256.337 370.451 255.912 370.939 255.646 371.514L234.291 417.939C234.058 418.444 233.957 419 233.995 419.555C234.034 420.11 234.211 420.646 234.511 421.114C234.811 421.582 235.224 421.968 235.712 422.235C236.2 422.501 236.747 422.641 237.303 422.641H686.395C686.96 422.641 687.516 422.497 688.01 422.222C688.504 421.946 688.919 421.549 689.216 421.068C689.513 420.588 689.682 420.039 689.708 419.474C689.733 418.909 689.613 418.348 689.36 417.842L666.148 371.417C665.874 370.865 665.451 370.401 664.927 370.077C664.403 369.753 663.799 369.582 663.183 369.584H258.659Z" fill="#2F2E41"/>
<path d="M461.423 84.9539C464.17 84.9539 466.397 82.7269 466.397 79.9797C466.397 77.2326 464.17 75.0056 461.423 75.0056C458.676 75.0056 456.449 77.2326 456.449 79.9797C456.449 82.7269 458.676 84.9539 461.423 84.9539Z" fill="white"/>
<path d="M417.281 431.484C416.552 431.485 415.844 431.726 415.265 432.169C414.687 432.613 414.27 433.234 414.079 433.938L408.723 453.834C408.59 454.326 408.573 454.841 408.671 455.341C408.77 455.84 408.983 456.31 409.292 456.714C409.602 457.118 410 457.445 410.457 457.671C410.913 457.896 411.415 458.013 411.924 458.013H513.798C514.327 458.013 514.848 457.887 515.318 457.644C515.788 457.402 516.193 457.051 516.499 456.62C516.806 456.19 517.005 455.692 517.08 455.169C517.155 454.645 517.104 454.112 516.931 453.612L510.044 433.716C509.818 433.064 509.395 432.499 508.833 432.099C508.272 431.7 507.6 431.485 506.91 431.484H417.281Z" fill="#2F2E41"/>
<path d="M689.127 349.135V353.556H233.387L233.73 353.004V349.135H689.127Z" fill="#2F2E41"/>
<path d="M622.401 259.15H303.761C302.197 259.148 300.697 258.525 299.591 257.419C298.484 256.313 297.862 254.813 297.86 253.249V174.208C297.862 172.643 298.484 171.144 299.591 170.037C300.697 168.931 302.197 168.309 303.761 168.307H622.401C623.965 168.309 625.465 168.931 626.571 170.037C627.678 171.144 628.3 172.643 628.302 174.208V253.249C628.3 254.813 627.678 256.313 626.571 257.419C625.465 258.525 623.965 259.148 622.401 259.15V259.15ZM303.761 170.667C302.822 170.668 301.922 171.042 301.259 171.706C300.595 172.369 300.222 173.269 300.221 174.208V253.249C300.222 254.188 300.595 255.087 301.259 255.751C301.922 256.415 302.822 256.788 303.761 256.789H622.401C623.34 256.788 624.24 256.415 624.903 255.751C625.567 255.087 625.94 254.188 625.941 253.249V174.208C625.94 173.269 625.567 172.369 624.903 171.706C624.24 171.042 623.34 170.668 622.401 170.667L303.761 170.667Z" fill="#E6E6E6"/>
<path d="M353.271 234.732C366.546 234.732 377.308 223.97 377.308 210.695C377.308 197.42 366.546 186.659 353.271 186.659C339.996 186.659 329.235 197.42 329.235 210.695C329.235 223.97 339.996 234.732 353.271 234.732Z" fill="#E6E6E6"/>
<path d="M408.784 194.671C408.258 194.67 407.736 194.773 407.249 194.974C406.762 195.175 406.32 195.47 405.947 195.842C405.575 196.214 405.279 196.656 405.077 197.143C404.876 197.629 404.772 198.151 404.772 198.677C404.772 199.204 404.876 199.725 405.077 200.212C405.279 200.698 405.575 201.14 405.947 201.512C406.32 201.884 406.762 202.179 407.249 202.38C407.736 202.581 408.258 202.684 408.784 202.683H597.642C598.704 202.683 599.723 202.261 600.475 201.51C601.226 200.759 601.648 199.74 601.648 198.677C601.648 197.615 601.226 196.596 600.475 195.844C599.723 195.093 598.704 194.671 597.642 194.671H408.784Z" fill="#E6E6E6"/>
<path d="M408.784 218.708C407.722 218.708 406.703 219.13 405.951 219.881C405.2 220.632 404.778 221.651 404.778 222.714C404.778 223.776 405.2 224.795 405.951 225.546C406.703 226.298 407.722 226.72 408.784 226.72H490.05C491.113 226.72 492.132 226.298 492.883 225.546C493.634 224.795 494.056 223.776 494.056 222.714C494.056 221.651 493.634 220.632 492.883 219.881C492.132 219.13 491.113 218.708 490.05 218.708H408.784Z" fill="#E6E6E6"/>
<path d="M232.603 220.328L173.7 251.644L172.954 225.547C192.18 222.338 210.471 216.75 227.384 207.653L233.544 192.433C234.216 190.774 235.307 189.319 236.71 188.209C238.114 187.1 239.782 186.375 241.551 186.105C243.319 185.834 245.128 186.029 246.799 186.669C248.469 187.309 249.945 188.372 251.081 189.755V189.755C252.742 191.778 253.573 194.356 253.404 196.969C253.235 199.581 252.08 202.031 250.172 203.824L232.603 220.328Z" fill="#FFB8B8"/>
<path d="M88.6791 401.133C88.2494 399.557 88.1582 397.908 88.4114 396.294C88.6646 394.68 89.2566 393.138 90.1484 391.77L103.088 371.912C106.148 367.215 110.844 363.822 116.265 362.392C121.685 360.962 127.444 361.597 132.423 364.173V364.173C126.985 373.429 127.743 381.549 134.301 388.606C124.12 393.576 114.711 399.991 106.365 407.651C104.841 408.69 103.091 409.35 101.261 409.575C99.4307 409.801 97.573 409.586 95.8427 408.948C94.1124 408.31 92.5596 407.268 91.3135 405.909C90.0674 404.549 89.1642 402.912 88.6791 401.133V401.133Z" fill="#2F2E41"/>
<path d="M235.286 375.168C233.328 378.432 230.564 381.137 227.259 383.025C223.955 384.912 220.22 385.919 216.415 385.948L130.455 386.599L126.727 364.976L164.753 353.792L132.691 329.187L167.735 288.178L231.385 347.503C235.105 350.97 237.522 355.609 238.232 360.645C238.942 365.681 237.902 370.808 235.286 375.168V375.168Z" fill="#2F2E41"/>
<path d="M117.034 523.045H96.9022C78.8271 399.147 60.4284 274.903 114.797 228.53L178.919 238.968L170.717 293.398L134.928 334.406L117.034 523.045Z" fill="#2F2E41"/>
<path d="M134.73 551.112C133.154 551.541 131.505 551.633 129.891 551.38C128.278 551.126 126.736 550.535 125.367 549.643L103.508 546.705C98.8114 543.645 95.4186 538.949 93.9882 533.528C92.5579 528.108 93.1919 522.35 95.7674 517.37C105.024 522.808 113.144 522.049 120.201 515.491C125.187 525.558 133.402 524.944 141.248 533.426C142.286 534.949 142.946 536.699 143.172 538.529C143.397 540.36 143.182 542.217 142.545 543.948C141.907 545.678 140.865 547.231 139.506 548.477C138.147 549.723 136.509 550.626 134.73 551.112V551.112Z" fill="#2F2E41"/>
<path d="M164.753 145.767L127.472 136.82C133.664 124.146 134.174 110.044 131.2 95.0659L156.551 94.3203C157.345 112.946 159.748 130.347 164.753 145.767Z" fill="#FFB8B8"/>
<path d="M174.999 261.418C147.86 279.911 128.684 262.051 114.051 234.495C116.085 217.633 112.792 197.454 106.695 175.528C103.983 165.858 104.995 155.522 109.532 146.561C114.069 137.6 121.8 130.666 131.2 127.127V127.127L163.261 140.548C190.485 162.739 195.843 186.775 185.63 212.127L174.999 261.418Z" fill="#952422"/>
<path d="M96.9023 164.408L67.078 180.065L120.016 211.381L127.382 229.55C127.874 230.763 128.113 232.063 128.086 233.372C128.059 234.68 127.765 235.969 127.224 237.16C126.682 238.351 125.903 239.42 124.935 240.3C123.967 241.181 122.83 241.855 121.593 242.281V242.281C120.187 242.766 118.687 242.919 117.212 242.728C115.737 242.536 114.326 242.006 113.09 241.179C111.854 240.351 110.826 239.249 110.087 237.957C109.349 236.666 108.919 235.222 108.831 233.737L108.086 221.074L40.8027 198.87C38.5357 198.122 36.4687 196.868 34.7582 195.203C33.0478 193.537 31.7386 191.505 30.93 189.259V189.259C29.7514 185.985 29.6914 182.412 30.7594 179.101C31.8275 175.789 33.9633 172.925 36.8326 170.956L90.9375 133.838L96.9023 164.408Z" fill="#FFB8B8"/>
<path d="M126.727 167.39C114.288 161.939 102.977 167.86 88.7007 172.609L86.4639 133.092C100.64 125.536 114.156 123.499 126.727 129.364L126.727 167.39Z" fill="#952422"/>
<path d="M141.606 113.895C154.752 113.895 165.408 103.238 165.408 90.0924C165.408 76.9468 154.752 66.2903 141.606 66.2903C128.461 66.2903 117.804 76.9468 117.804 90.0924C117.804 103.238 128.461 113.895 141.606 113.895Z" fill="#FFB8B8"/>
<path d="M170.081 87.0892C146.515 89.3973 128.558 85.5432 117.081 74.5692V65.7314H168.081L170.081 87.0892Z" fill="#2F2E41"/>
<g class="bounce">
<path d="M628.375 265.75C671.108 265.75 705.75 231.108 705.75 188.375C705.75 145.642 671.108 111 628.375 111C585.642 111 551 145.642 551 188.375C551 231.108 585.642 265.75 628.375 265.75Z" fill="#952422"/>
<path d="M660.431 222.089H596.32C595.147 222.088 594.024 221.622 593.195 220.793C592.366 219.964 591.899 218.84 591.898 217.667V178.98C591.9 177.808 592.366 176.684 593.195 175.855C594.024 175.026 595.148 174.56 596.32 174.558H660.431C661.603 174.56 662.727 175.026 663.556 175.855C664.385 176.684 664.851 177.808 664.852 178.98V217.667C664.851 218.84 664.385 219.964 663.556 220.793C662.727 221.622 661.603 222.088 660.431 222.089ZM596.32 178.98V217.667H660.434L660.431 178.98L596.32 178.98Z" fill="white"/>
<path d="M648.272 178.98H608.479V161.294C608.479 148.484 616.847 139.187 628.375 139.187C639.904 139.187 648.272 148.484 648.272 161.294L648.272 178.98ZM612.9 174.558H643.85V161.294C643.85 150.881 637.487 143.608 628.375 143.608C619.264 143.608 612.9 150.881 612.9 161.294L612.9 174.558Z" fill="white"/>
<path d="M628.375 201.64C630.817 201.64 632.797 199.66 632.797 197.218C632.797 194.776 630.817 192.797 628.375 192.797C625.933 192.797 623.954 194.776 623.954 197.218C623.954 199.66 625.933 201.64 628.375 201.64Z" fill="white"/>
</g>
</g>
<defs>
<clipPath id="clip0">
<rect width="793" height="551.732" fill="white"/>
</clipPath>
</defs>
</svg>
