<svg width="926" height="771" viewBox="0 0 926 771" fill="none" xmlns="http://www.w3.org/2000/svg">
<g id="undraw_To_the_stars_qhyy 1" clip-path="url(#clip0)">
<path id="Vector" opacity="0.7" d="M710.43 616.63C717.809 616.63 723.79 610.649 723.79 603.27C723.79 595.891 717.809 589.91 710.43 589.91C703.052 589.91 697.07 595.891 697.07 603.27C697.07 610.649 703.052 616.63 710.43 616.63Z" fill="url(#paint0_linear)"/>
<path id="Vector_2" d="M710.43 615.65C717.267 615.65 722.81 610.107 722.81 603.27C722.81 596.433 717.267 590.89 710.43 590.89C703.593 590.89 698.05 596.433 698.05 603.27C698.05 610.107 703.593 615.65 710.43 615.65Z" fill="url(#paint1_linear)"/>
<path id="Vector_3" opacity="0.7" d="M771.61 746.75C779.657 746.75 786.18 740.227 786.18 732.18C786.18 724.133 779.657 717.61 771.61 717.61C763.563 717.61 757.04 724.133 757.04 732.18C757.04 740.227 763.563 746.75 771.61 746.75Z" fill="url(#paint2_linear)"/>
<path id="Vector_4" d="M771.61 746.02C779.254 746.02 785.45 739.824 785.45 732.18C785.45 724.536 779.254 718.34 771.61 718.34C763.966 718.34 757.77 724.536 757.77 732.18C757.77 739.824 763.966 746.02 771.61 746.02Z" fill="url(#paint3_linear)"/>
<path id="Vector_5" opacity="0.7" d="M148.17 665.16C157.012 665.16 164.18 657.992 164.18 649.15C164.18 640.308 157.012 633.14 148.17 633.14C139.328 633.14 132.16 640.308 132.16 649.15C132.16 657.992 139.328 665.16 148.17 665.16Z" fill="url(#paint4_linear)"/>
<path id="Vector_6" d="M148.17 664.44C156.614 664.44 163.46 657.594 163.46 649.15C163.46 640.706 156.614 633.86 148.17 633.86C139.726 633.86 132.88 640.706 132.88 649.15C132.88 657.594 139.726 664.44 148.17 664.44Z" fill="url(#paint5_linear)"/>
<path id="Vector_7" opacity="0.4" d="M751.32 17.47C747.771 12.7806 743.325 8.84421 738.24 5.89002C732.407 2.53776 725.881 0.570529 719.167 0.140132C712.452 -0.290264 705.729 0.827684 699.515 3.4077C693.301 5.98772 687.763 9.96084 683.329 15.0205C678.894 20.0801 675.681 26.091 673.937 32.5893C672.194 39.0875 671.967 45.8995 673.273 52.4995C674.58 59.0995 677.385 65.3111 681.473 70.655C685.561 75.9988 690.822 80.3321 696.85 83.3204C702.878 86.3087 709.512 87.8721 716.24 87.89C717.17 87.89 718.1 87.89 719.02 87.8C726.936 87.3007 734.569 84.6666 741.108 80.1775C747.647 75.6885 752.848 69.5121 756.158 62.3045C759.469 55.0969 760.765 47.1271 759.91 39.2418C759.054 31.3565 756.079 23.8502 751.3 17.52L751.32 17.47Z" fill="url(#paint6_linear)"/>
<path id="Vector_8" opacity="0.2" d="M757.77 43.92C757.771 54.4745 753.751 64.6329 746.529 72.3291C739.306 80.0254 729.423 84.6813 718.89 85.35C718.02 85.41 717.14 85.44 716.26 85.44C709.895 85.4363 703.616 83.9688 697.909 81.151C692.201 78.3332 687.218 74.2406 683.345 69.1896C679.471 64.1386 676.812 58.2645 675.571 52.0215C674.33 45.7785 674.542 39.3337 676.189 33.1855C677.837 27.0373 680.876 21.3503 685.073 16.5643C689.269 11.7782 694.509 8.02131 700.389 5.58395C706.269 3.14659 712.631 2.09409 718.983 2.50784C725.335 2.92158 731.506 4.79048 737.02 7.97004V7.97004C741.829 10.7629 746.034 14.4853 749.39 18.92V18.92C754.84 26.1139 757.783 34.8949 757.77 43.92V43.92Z" fill="#952422"/>
<path id="Vector_9" opacity="0.05" d="M706.04 17.59C703.896 18.5151 701.826 19.6051 699.85 20.85C698.531 21.5819 697.398 22.6086 696.54 23.85C696.121 24.4727 695.891 25.203 695.877 25.9533C695.862 26.7035 696.065 27.442 696.46 28.08C697.46 29.46 699.46 29.68 701.13 29.77C702.665 30.096 704.259 30.0085 705.749 29.5166C707.239 29.0246 708.571 28.1458 709.61 26.97L713.18 23.73C714.42 22.61 715.78 21.06 715.24 19.48C714.83 18.27 713.47 17.68 712.24 17.48C709.172 16.8762 705.988 17.4358 703.31 19.05" fill="#F55F44"/>
<path id="Vector_10" opacity="0.05" d="M691.13 62.49C692.334 62.49 693.31 61.514 693.31 60.31C693.31 59.106 692.334 58.13 691.13 58.13C689.926 58.13 688.95 59.106 688.95 60.31C688.95 61.514 689.926 62.49 691.13 62.49Z" fill="#F55F44"/>
<path id="Vector_11" opacity="0.05" d="M735.56 54.48C739.984 54.48 743.57 50.8938 743.57 46.47C743.57 42.0462 739.984 38.46 735.56 38.46C731.136 38.46 727.55 42.0462 727.55 46.47C727.55 50.8938 731.136 54.48 735.56 54.48Z" fill="#F55F44"/>
<path id="Vector_12" opacity="0.05" d="M749.4 18.91C749.368 21.003 748.736 23.0428 747.579 24.7871C746.422 26.5313 744.788 27.9066 742.872 28.7494C740.956 29.5922 738.838 29.8672 736.771 29.5415C734.703 29.2158 732.772 28.3033 731.208 26.9123C729.644 25.5214 728.512 23.7105 727.947 21.695C727.382 19.6795 727.408 17.5442 728.021 15.5428C728.634 13.5414 729.809 11.7582 731.406 10.4051C733.003 9.05206 734.955 8.18605 737.03 7.91003V7.91003C741.844 10.7176 746.049 14.4572 749.4 18.91V18.91Z" fill="#F55F44"/>
<path id="Vector_13" opacity="0.05" d="M750.2 67.83C746.629 72.9113 741.961 77.1243 736.541 80.157C731.121 83.1897 725.089 84.9645 718.89 85.35C718.84 84.78 718.81 84.2 718.81 83.62C718.811 79.9763 719.825 76.4047 721.737 73.3032C723.65 70.2018 726.386 67.6925 729.641 66.0551C732.896 64.4177 736.542 63.7167 740.172 64.0301C743.802 64.3434 747.274 65.659 750.2 67.83V67.83Z" fill="#F55F44"/>
<path id="Vector_14" opacity="0.25" d="M722.81 349.82C725.627 349.82 727.91 347.537 727.91 344.72C727.91 341.903 725.627 339.62 722.81 339.62C719.993 339.62 717.71 341.903 717.71 344.72C717.71 347.537 719.993 349.82 722.81 349.82Z" fill="#535461"/>
<path id="Vector_15" opacity="0.25" d="M42.81 483.82C45.6266 483.82 47.91 481.537 47.91 478.72C47.91 475.903 45.6266 473.62 42.81 473.62C39.9933 473.62 37.71 475.903 37.71 478.72C37.71 481.537 39.9933 483.82 42.81 483.82Z" fill="#535461"/>
<path id="Vector_16" opacity="0.25" d="M919.81 512.82C922.627 512.82 924.91 510.537 924.91 507.72C924.91 504.903 922.627 502.62 919.81 502.62C916.993 502.62 914.71 504.903 914.71 507.72C914.71 510.537 916.993 512.82 919.81 512.82Z" fill="#535461"/>
<path id="Vector_17" opacity="0.25" d="M127.77 386.23C130.587 386.23 132.87 383.947 132.87 381.13C132.87 378.313 130.587 376.03 127.77 376.03C124.953 376.03 122.67 378.313 122.67 381.13C122.67 383.947 124.953 386.23 127.77 386.23Z" fill="#535461"/>
<path id="Vector_18" opacity="0.25" d="M849.18 387.12H844.64V382.59H842.79V387.12H838.25V388.98H842.79V393.51H844.64V388.98H849.18V387.12Z" fill="#535461"/>
<path id="Vector_19" opacity="0.25" d="M925.18 230.12H920.64V225.59H918.79V230.12H914.25V231.98H918.79V236.51H920.64V231.98H925.18V230.12Z" fill="#535461"/>
<path id="Vector_20" opacity="0.25" d="M799.65 361.63H795.11V357.1H793.26V361.63H788.73V363.49H793.26V368.02H795.11V363.49H799.65V361.63Z" fill="#535461"/>
<path id="Vector_21" opacity="0.25" d="M168.93 201.4H164.39V196.87H162.54V201.4H158V203.25H162.54V207.79H164.39V203.25H168.93V201.4Z" fill="#535461"/>
<path id="Vector_22" opacity="0.25" d="M10.93 260.4H6.39V255.87H4.54V260.4H0V262.25H4.54V266.79H6.39V262.25H10.93V260.4Z" fill="#535461"/>
<path id="Vector_23" d="M771.61 746.02C779.254 746.02 785.45 739.824 785.45 732.18C785.45 724.536 779.254 718.34 771.61 718.34C763.966 718.34 757.77 724.536 757.77 732.18C757.77 739.824 763.966 746.02 771.61 746.02Z" fill="url(#paint7_linear)"/>
<g id="rocket">
<path id="Vector_24" opacity="0.7" d="M584.482 346.611C584.562 322.246 578.729 298.225 567.482 276.611C562.142 266.461 557.272 260.151 553.482 256.281C552.053 254.765 550.186 253.734 548.142 253.33C546.098 252.927 543.98 253.172 542.082 254.031C540.565 254.566 539.195 255.45 538.082 256.611C533.012 261.861 528.432 268.801 524.432 276.191C512.599 298.31 506.458 323.026 506.562 348.111V363.171H496.902V188.171C496.902 151.491 488.692 115.301 472.612 83.1711C464.992 67.9611 458.042 58.5111 452.692 52.7011C451.396 51.2241 449.799 50.0408 448.009 49.2301C446.219 48.4194 444.277 48 442.312 48C440.347 48 438.404 48.4194 436.614 49.2301C434.824 50.0408 433.228 51.2241 431.932 52.7011C424.692 60.5711 418.162 70.9711 412.452 82.0311C395.542 114.821 386.952 152.031 386.952 189.801V363.171H378.602V347.391C378.705 322.306 372.564 297.59 360.732 275.471C356.732 268.091 352.152 261.151 347.082 255.891C345.622 254.354 343.712 253.32 341.627 252.939C339.543 252.558 337.39 252.85 335.482 253.771L335.832 253.961C334.607 254.502 333.5 255.277 332.572 256.241C328.822 260.111 323.952 266.421 318.572 276.571C307.325 298.185 301.491 322.206 301.572 346.571V608.211H331.372L328.122 629.721V694.031H352.482V629.721L349.232 608.211H378.602V369.941H386.952V607.141H410.752L407.332 629.711V694.031H431.702V629.721L428.282 607.151H460.352L456.932 629.721V694.031H481.302V629.721L477.882 607.151H496.882V369.941H506.542V608.571H514.372V608.211H540.262L537.012 629.721V694.031H561.382V629.721L558.132 608.211H584.482V346.611Z" fill="url(#paint8_linear)"/>
<path id="Vector_25" d="M357.332 617.181H334.262L338.382 589.171H353.212L357.332 617.181Z" fill="#535461"/>
<path id="Vector_26" opacity="0.1" d="M337.232 600.291H354.362L353.212 592.461H338.382L337.232 600.291Z" fill="black"/>
<path id="Vector_27" d="M555.092 617.181H532.022L536.142 589.171H550.972L555.092 617.181Z" fill="#535461"/>
<path id="Vector_28" opacity="0.1" d="M534.992 600.291H552.122L550.972 592.461H536.142L534.992 600.291Z" fill="black"/>
<path id="Vector_29" d="M432.322 617.181H409.242L413.362 589.171H428.202L432.322 617.181Z" fill="#535461"/>
<path id="Vector_30" opacity="0.1" d="M412.212 600.291H429.352L428.202 592.461H413.362L412.212 600.291Z" fill="black"/>
<path id="Vector_31" d="M479.282 617.181H456.212L460.332 589.171H475.162L479.282 617.181Z" fill="#535461"/>
<path id="Vector_32" opacity="0.1" d="M459.182 600.291H476.322L475.162 592.461H460.332L459.182 600.291Z" fill="black"/>
<path id="Vector_33" d="M522.132 357.621H357.332V364.211H522.132V357.621Z" fill="#535461"/>
<path id="Vector_34" d="M547.612 253.491C546.741 252.53 545.678 251.761 544.492 251.236C543.307 250.71 542.024 250.438 540.727 250.438C539.43 250.438 538.147 250.71 536.961 251.236C535.775 251.761 534.713 252.53 533.842 253.491C529.042 258.601 524.712 265.361 520.922 272.551C509.706 294.173 503.904 318.193 504.012 342.551V596.241H576.942V341.501C577.033 317.811 571.513 294.437 560.832 273.291C555.772 263.411 551.162 257.261 547.612 253.491Z" fill="#E0E0E0"/>
<path id="Vector_35" d="M338.482 253.491C339.353 252.53 340.415 251.761 341.601 251.236C342.787 250.71 344.07 250.438 345.367 250.438C346.664 250.438 347.947 250.71 349.132 251.236C350.318 251.761 351.381 252.53 352.252 253.491C357.052 258.601 361.382 265.361 365.172 272.551C376.387 294.173 382.19 318.193 382.082 342.551V596.241H309.132V341.501C309.04 317.811 314.561 294.437 325.242 273.291C330.292 263.411 334.902 257.261 338.482 253.491Z" fill="#E0E0E0"/>
<path id="Vector_36" d="M309.542 346.911L326.842 346.991V368.331H309.542V346.911Z" fill="#535461"/>
<path id="Vector_37" d="M364.752 346.911L382.052 346.991V368.331H364.752V346.911Z" fill="#535461"/>
<path id="Vector_38" d="M504.002 346.911L521.312 346.991V368.331H504.002V346.911Z" fill="#535461"/>
<path id="Vector_39" d="M559.212 346.911L576.522 346.991V368.331H559.212V346.911Z" fill="#535461"/>
<path id="Vector_40" opacity="0.1" d="M365.142 272.221C361.362 265.031 357.022 258.271 352.222 253.161C350.865 251.663 349.056 250.65 347.07 250.276C345.084 249.902 343.03 250.188 341.222 251.091C342.264 251.611 343.205 252.312 344.002 253.161C348.802 258.271 353.132 265.031 356.922 272.221C368.137 293.843 373.94 317.863 373.832 342.221V595.891H382.072V342.251C382.178 317.882 376.369 293.851 365.142 272.221V272.221Z" fill="black"/>
<path id="Vector_41" opacity="0.1" d="M527.482 272.921C531.262 265.731 535.602 258.971 540.402 253.861C541.301 252.894 542.386 252.118 543.592 251.581C541.809 250.8 539.826 250.601 537.924 251.01C536.021 251.419 534.296 252.417 532.992 253.861C528.192 258.971 523.862 265.731 520.072 272.921C508.856 294.543 503.054 318.564 503.162 342.921V596.591H510.582V342.961C510.464 318.591 516.264 294.556 527.482 272.921V272.921Z" fill="black"/>
<path id="Vector_42" d="M357.332 617.181H334.262V679.801H357.332V617.181Z" fill="url(#paint9_linear)"/>
<path id="Vector_43" d="M432.312 617.181H409.242V679.801H432.312V617.181Z" fill="url(#paint10_linear)"/>
<path id="Vector_44" d="M479.282 617.181H456.212V679.801H479.282V617.181Z" fill="url(#paint11_linear)"/>
<path id="Vector_45" d="M555.092 617.181H532.022V679.801H555.092V617.181Z" fill="url(#paint12_linear)"/>
<path id="Vector_46" d="M452.182 54.5911C450.976 53.1586 449.473 52.007 447.775 51.217C446.078 50.4269 444.229 50.0176 442.357 50.0176C440.485 50.0176 438.635 50.4269 436.938 51.217C435.241 52.007 433.737 53.1586 432.532 54.5911C425.682 62.2511 419.532 72.3811 414.092 83.1611C398.092 115.101 389.952 151.351 389.952 188.111V595.201H494.042V186.471C494.042 150.751 486.272 115.471 471.042 84.2611C463.832 69.4511 457.252 60.2511 452.182 54.5911Z" fill="#EEEEEE"/>
<path id="Vector_47" d="M457.432 99.811H425.122C419.047 99.811 414.122 104.736 414.122 110.811V113.701C414.122 119.776 419.047 124.701 425.122 124.701H457.432C463.507 124.701 468.432 119.776 468.432 113.701V110.811C468.432 104.736 463.507 99.811 457.432 99.811Z" fill="#952422"/>
<path id="Vector_48" opacity="0.7" d="M684.482 672.961C681.066 652.367 670.015 633.816 653.532 621.005C637.049 608.195 616.343 602.067 595.543 603.842C574.743 605.617 555.375 615.165 541.301 630.583C527.226 646 519.479 666.156 519.602 687.031C519.602 687.441 519.602 687.841 519.602 688.251C516.532 688.716 513.493 689.367 510.502 690.201C506.671 674.946 498.192 661.259 486.238 651.035C474.285 640.812 459.448 634.558 443.783 633.14C428.118 631.722 412.4 635.209 398.805 643.12C385.209 651.03 374.41 662.972 367.902 677.291C361.194 674.703 354.148 673.093 346.982 672.511V672.511C345.839 666.022 343.922 659.693 341.272 653.661C340.028 634.627 331.653 616.762 317.82 603.63C303.986 590.497 285.709 583.063 266.636 582.811C247.563 582.558 229.096 589.506 214.92 602.268C200.743 615.029 191.899 632.667 190.152 651.661C186.225 659.976 183.717 668.889 182.732 678.031C165.373 685.253 151.314 698.663 143.279 715.66C135.244 732.658 133.805 752.033 139.242 770.031H746.822C749.989 759.533 750.842 748.474 749.324 737.614C747.805 726.755 743.95 716.354 738.025 707.127C732.1 697.901 724.245 690.069 715.001 684.171C705.758 678.272 695.346 674.448 684.482 672.961V672.961Z" fill="url(#paint13_linear)"/>
<path id="Vector_49" opacity="0.25" d="M288.622 271.141C291.438 271.141 293.722 268.858 293.722 266.041C293.722 263.224 291.438 260.941 288.622 260.941C285.805 260.941 283.522 263.224 283.522 266.041C283.522 268.858 285.805 271.141 288.622 271.141Z" fill="#535461"/>
<path id="Vector_50" opacity="0.25" d="M271.872 153.881C274.688 153.881 276.972 151.598 276.972 148.781C276.972 145.964 274.688 143.681 271.872 143.681C269.055 143.681 266.772 145.964 266.772 148.781C266.772 151.598 269.055 153.881 271.872 153.881Z" fill="#535461"/>
<path id="Vector_51" opacity="0.25" d="M601.442 142.391H596.902V137.851H595.052V142.391H590.512V144.241H595.052V148.781H596.902V144.241H601.442V142.391Z" fill="#535461"/>
<path id="Vector_52" opacity="0.25" d="M633.482 512.371H628.952V507.841H627.102V512.371H622.562V514.231H627.102V518.761H628.952V514.231H633.482V512.371Z" fill="#535461"/>
<path id="Vector_53" opacity="0.25" d="M231.452 446.101H226.912V441.561H225.062V446.101H220.532V447.951H225.062V452.491H226.912V447.951H231.452V446.101Z" fill="#535461"/>
<path id="Vector_54" opacity="0.4" d="M268.852 348.301C267.162 346.066 265.044 344.189 262.622 342.781C259.843 341.164 256.73 340.209 253.523 339.99C250.315 339.771 247.101 340.294 244.128 341.519C241.156 342.743 238.506 344.636 236.384 347.051C234.262 349.466 232.725 352.337 231.892 355.442C231.059 358.547 230.953 361.802 231.582 364.955C232.211 368.107 233.558 371.072 235.519 373.62C237.479 376.168 240.001 378.229 242.887 379.644C245.773 381.06 248.947 381.791 252.162 381.781C252.602 381.781 253.052 381.781 253.482 381.781C257.25 381.54 260.883 380.284 263.995 378.145C267.107 376.006 269.582 373.065 271.158 369.634C272.733 366.203 273.351 362.409 272.945 358.655C272.539 354.901 271.125 351.326 268.852 348.311V348.301Z" fill="url(#paint14_linear)"/>
<path id="Vector_55" opacity="0.2" d="M271.922 360.901C271.922 365.928 270.007 370.766 266.566 374.431C263.126 378.096 258.418 380.313 253.402 380.631C252.992 380.631 252.572 380.631 252.152 380.631C249.121 380.628 246.131 379.928 243.414 378.585C240.697 377.243 238.324 375.293 236.481 372.888C234.637 370.482 233.371 367.685 232.78 364.712C232.19 361.739 232.291 358.67 233.076 355.743C233.86 352.815 235.308 350.107 237.306 347.828C239.304 345.549 241.799 343.76 244.599 342.599C247.398 341.438 250.428 340.936 253.452 341.133C256.477 341.329 259.416 342.218 262.042 343.731V343.731C264.33 345.061 266.332 346.832 267.932 348.941V348.941C270.538 352.382 271.94 356.585 271.922 360.901V360.901Z" fill="#952422"/>
<path id="Vector_56" opacity="0.1" d="M247.282 348.361C246.243 348.798 245.24 349.317 244.282 349.911C243.654 350.254 243.113 350.736 242.702 351.321C242.511 351.62 242.41 351.967 242.41 352.321C242.41 352.675 242.511 353.022 242.702 353.321C242.992 353.606 243.341 353.825 243.724 353.963C244.107 354.102 244.516 354.155 244.922 354.121C245.647 354.269 246.398 354.225 247.1 353.991C247.802 353.758 248.43 353.344 248.922 352.791L250.622 351.251C251.212 350.711 251.862 349.981 251.622 349.251C251.488 348.975 251.285 348.738 251.033 348.563C250.78 348.388 250.487 348.28 250.182 348.251C248.721 347.965 247.206 348.233 245.932 349.001" fill="#F55F44"/>
<path id="Vector_57" opacity="0.1" d="M240.182 369.741C240.756 369.741 241.222 369.275 241.222 368.701C241.222 368.127 240.756 367.661 240.182 367.661C239.607 367.661 239.142 368.127 239.142 368.701C239.142 369.275 239.607 369.741 240.182 369.741Z" fill="#F55F44"/>
<path id="Vector_58" opacity="0.1" d="M261.342 365.931C263.451 365.931 265.162 364.221 265.162 362.111C265.162 360.001 263.451 358.291 261.342 358.291C259.232 358.291 257.522 360.001 257.522 362.111C257.522 364.221 259.232 365.931 261.342 365.931Z" fill="#F55F44"/>
<path id="Vector_59" opacity="0.1" d="M267.932 349.031C267.919 350.027 267.621 350.999 267.072 351.83C266.523 352.661 265.747 353.318 264.836 353.721C263.925 354.124 262.917 354.256 261.933 354.103C260.948 353.95 260.029 353.517 259.283 352.857C258.538 352.196 257.998 351.335 257.727 350.376C257.457 349.417 257.468 348.401 257.758 347.448C258.049 346.495 258.607 345.646 259.366 345.001C260.126 344.356 261.054 343.943 262.042 343.811V343.811C264.331 345.144 266.333 346.918 267.932 349.031V349.031Z" fill="#F55F44"/>
<path id="Vector_60" opacity="0.1" d="M268.322 372.291C266.622 374.712 264.399 376.72 261.818 378.165C259.237 379.61 256.364 380.457 253.412 380.641C253.412 380.371 253.412 380.091 253.412 379.811C253.406 378.068 253.887 376.357 254.801 374.872C255.714 373.387 257.024 372.186 258.582 371.405C260.141 370.623 261.887 370.292 263.623 370.449C265.36 370.605 267.018 371.243 268.412 372.291H268.322Z" fill="#F55F44"/>
<path id="Vector_61" opacity="0.1" d="M493.482 202.031H390.482V206.031H493.482V202.031Z" fill="black"/>
</g>
<path id="Vector_62" d="M272.602 732.161C312.825 732.161 345.432 699.554 345.432 659.331C345.432 619.108 312.825 586.501 272.602 586.501C232.379 586.501 199.772 619.108 199.772 659.331C199.772 699.554 232.379 732.161 272.602 732.161Z" fill="url(#paint15_linear)"/>
<path id="Vector_63" d="M272.242 766.391C316.286 766.391 351.992 730.686 351.992 686.641C351.992 642.596 316.286 606.891 272.242 606.891C228.197 606.891 192.492 642.596 192.492 686.641C192.492 730.686 228.197 766.391 272.242 766.391Z" fill="url(#paint16_linear)"/>
<path id="Vector_64" d="M596.342 766.391C640.386 766.391 676.092 730.686 676.092 686.641C676.092 642.596 640.386 606.891 596.342 606.891C552.297 606.891 516.592 642.596 516.592 686.641C516.592 730.686 552.297 766.391 596.342 766.391Z" fill="url(#paint17_linear)"/>
<path id="Vector_65" d="M592.332 766.391C632.555 766.391 665.162 733.784 665.162 693.561C665.162 653.338 632.555 620.731 592.332 620.731C552.109 620.731 519.502 653.338 519.502 693.561C519.502 733.784 552.109 766.391 592.332 766.391Z" fill="url(#paint18_linear)"/>
<path id="Vector_66" d="M510.032 707.401C510.043 718.918 507.319 730.273 502.082 740.531C496.845 750.789 489.247 759.656 479.912 766.401H394.482C384.37 759.093 376.305 749.31 371.058 737.991C365.811 726.672 363.559 714.195 364.517 701.756C365.475 689.317 369.611 677.332 376.529 666.949C383.447 656.567 392.915 648.135 404.026 642.461C415.137 636.787 427.52 634.061 439.986 634.545C452.453 635.029 464.587 638.706 475.225 645.223C485.863 651.741 494.65 660.881 500.742 671.768C506.835 682.656 510.03 694.925 510.022 707.401H510.032Z" fill="url(#paint19_linear)"/>
<path id="Vector_67" d="M600.352 759.841C600.352 762.021 600.255 764.178 600.062 766.311C600.069 766.341 600.069 766.372 600.062 766.401H454.982C454.782 764.241 454.682 762.051 454.682 759.851C454.669 742.423 460.913 725.57 472.276 712.357C483.64 699.143 499.369 690.448 516.602 687.851C520.203 687.31 523.84 687.035 527.482 687.031C529.342 687.031 531.192 687.101 533.022 687.231C546.075 688.229 558.619 692.725 569.336 700.246C580.052 707.766 588.545 718.034 593.922 729.971C594.222 730.631 594.512 731.301 594.782 731.971C598.459 740.802 600.353 750.275 600.352 759.841V759.841Z" fill="url(#paint20_linear)"/>
<path id="Vector_68" d="M738.002 745.271C738.01 752.426 736.958 759.544 734.882 766.391H595.482C592.111 755.192 591.47 743.349 593.612 731.851C593.732 731.221 593.852 730.581 593.992 729.961C597.501 713.678 606.483 699.089 619.442 688.625C632.402 678.16 648.555 672.452 665.212 672.451C667.502 672.451 669.752 672.551 671.982 672.771C672.982 672.851 673.982 672.971 674.982 673.101C692.437 675.476 708.441 684.097 720.028 697.366C731.615 710.636 738.001 727.655 738.002 745.271V745.271Z" fill="url(#paint21_linear)"/>
<path id="Vector_69" d="M290.612 766.401C290.852 765.641 291.062 764.881 291.272 764.111C294.587 751.711 294.569 738.655 291.219 726.265C287.869 713.874 281.306 702.588 272.194 693.548C263.082 684.508 251.744 678.035 239.327 674.783C226.91 671.532 213.855 671.617 201.482 675.031C198.584 675.826 195.742 676.808 192.972 677.971C176.292 684.91 162.784 697.795 155.064 714.128C147.345 730.461 145.965 749.078 151.192 766.371H290.612V766.401Z" fill="url(#paint22_linear)"/>
</g>
<defs>
<linearGradient id="paint0_linear" x1="19679.7" y1="17066.3" x2="19679.7" y2="16352.3" gradientUnits="userSpaceOnUse">
<stop stop-color="#808080" stop-opacity="0.25"/>
<stop offset="0.54" stop-color="#808080" stop-opacity="0.12"/>
<stop offset="1" stop-color="#808080" stop-opacity="0.1"/>
</linearGradient>
<linearGradient id="paint1_linear" x1="18288.3" y1="15221.3" x2="18288.3" y2="15834.4" gradientUnits="userSpaceOnUse">
<stop stop-color="#F2F2F2"/>
<stop offset="0.31" stop-color="#E6E6E6"/>
<stop offset="0.77" stop-color="#CCCCCC"/>
</linearGradient>
<linearGradient id="paint2_linear" x1="23241.8" y1="22477.9" x2="23241.8" y2="21629.1" gradientUnits="userSpaceOnUse">
<stop stop-color="#808080" stop-opacity="0.25"/>
<stop offset="0.54" stop-color="#808080" stop-opacity="0.12"/>
<stop offset="1" stop-color="#808080" stop-opacity="0.1"/>
</linearGradient>
<linearGradient id="paint3_linear" x1="771.61" y1="718.34" x2="771.61" y2="746.02" gradientUnits="userSpaceOnUse">
<stop stop-color="#F2F2F2"/>
<stop offset="0.31" stop-color="#E0E0E0"/>
<stop offset="0.77" stop-color="#B3B3B3"/>
</linearGradient>
<linearGradient id="paint4_linear" x1="4876.56" y1="21931.5" x2="4876.56" y2="20906.3" gradientUnits="userSpaceOnUse">
<stop stop-color="#808080" stop-opacity="0.25"/>
<stop offset="0.54" stop-color="#808080" stop-opacity="0.12"/>
<stop offset="1" stop-color="#808080" stop-opacity="0.1"/>
</linearGradient>
<linearGradient id="paint5_linear" x1="4663.92" y1="20017.3" x2="4663.92" y2="20952.8" gradientUnits="userSpaceOnUse">
<stop stop-color="#F2F2F2"/>
<stop offset="0.31" stop-color="#E6E6E6"/>
<stop offset="0.77" stop-color="#CCCCCC"/>
</linearGradient>
<linearGradient id="paint6_linear" x1="75563.8" y1="13421.1" x2="75563.8" y2="5705.25" gradientUnits="userSpaceOnUse">
<stop stop-color="#808080" stop-opacity="0.25"/>
<stop offset="0.54" stop-color="#808080" stop-opacity="0.12"/>
<stop offset="1" stop-color="#808080" stop-opacity="0.1"/>
</linearGradient>
<linearGradient id="paint7_linear" x1="22115.9" y1="20602" x2="22115.9" y2="21368.2" gradientUnits="userSpaceOnUse">
<stop stop-color="#F2F2F2"/>
<stop offset="0.31" stop-color="#E6E6E6"/>
<stop offset="0.77" stop-color="#CCCCCC"/>
</linearGradient>
<linearGradient id="paint8_linear" x1="443.032" y1="694.031" x2="443.032" y2="48.0311" gradientUnits="userSpaceOnUse">
<stop stop-color="#808080" stop-opacity="0.25"/>
<stop offset="0.54" stop-color="#808080" stop-opacity="0.12"/>
<stop offset="1" stop-color="#808080" stop-opacity="0.1"/>
</linearGradient>
<linearGradient id="paint9_linear" x1="345.792" y1="617.181" x2="345.792" y2="679.811" gradientUnits="userSpaceOnUse">
<stop stop-color="#E0E0E0"/>
<stop offset="0.31" stop-color="#FCCC63"/>
<stop offset="0.77" stop-color="#F55F44"/>
</linearGradient>
<linearGradient id="paint10_linear" x1="10119.2" y1="39266.2" x2="10119.2" y2="43188.1" gradientUnits="userSpaceOnUse">
<stop stop-color="#E0E0E0"/>
<stop offset="0.31" stop-color="#FCCC63"/>
<stop offset="0.77" stop-color="#F55F44"/>
</linearGradient>
<linearGradient id="paint11_linear" x1="11249.7" y1="39266.2" x2="11249.7" y2="43188.1" gradientUnits="userSpaceOnUse">
<stop stop-color="#E0E0E0"/>
<stop offset="0.31" stop-color="#FCCC63"/>
<stop offset="0.77" stop-color="#F55F44"/>
</linearGradient>
<linearGradient id="paint12_linear" x1="13074.5" y1="39266.2" x2="13074.5" y2="43188.1" gradientUnits="userSpaceOnUse">
<stop stop-color="#E0E0E0"/>
<stop offset="0.31" stop-color="#FCCC63"/>
<stop offset="0.77" stop-color="#F55F44"/>
</linearGradient>
<linearGradient id="paint13_linear" x1="356626" y1="156927" x2="356626" y2="121867" gradientUnits="userSpaceOnUse">
<stop stop-color="#808080" stop-opacity="0.25"/>
<stop offset="0.54" stop-color="#808080" stop-opacity="0.12"/>
<stop offset="1" stop-color="#808080" stop-opacity="0.1"/>
</linearGradient>
<linearGradient id="paint14_linear" x1="16553.9" y1="19033.6" x2="16553.9" y2="17283.1" gradientUnits="userSpaceOnUse">
<stop stop-color="#808080" stop-opacity="0.25"/>
<stop offset="0.54" stop-color="#808080" stop-opacity="0.12"/>
<stop offset="1" stop-color="#808080" stop-opacity="0.1"/>
</linearGradient>
<linearGradient id="paint15_linear" x1="272.602" y1="586.501" x2="272.602" y2="732.161" gradientUnits="userSpaceOnUse">
<stop stop-color="#F2F2F2"/>
<stop offset="0.31" stop-color="#E6E6E6"/>
<stop offset="0.77" stop-color="#CCCCCC"/>
</linearGradient>
<linearGradient id="paint16_linear" x1="43632.3" y1="97409" x2="43632.3" y2="122849" gradientUnits="userSpaceOnUse">
<stop stop-color="#F2F2F2"/>
<stop offset="0.31" stop-color="#E6E6E6"/>
<stop offset="0.77" stop-color="#CCCCCC"/>
</linearGradient>
<linearGradient id="paint17_linear" x1="95650.4" y1="97409" x2="95650.4" y2="122849" gradientUnits="userSpaceOnUse">
<stop stop-color="#F2F2F2"/>
<stop offset="0.31" stop-color="#E6E6E6"/>
<stop offset="0.77" stop-color="#CCCCCC"/>
</linearGradient>
<linearGradient id="paint18_linear" x1="86814.3" y1="91039.2" x2="86814.3" y2="112256" gradientUnits="userSpaceOnUse">
<stop stop-color="#F2F2F2"/>
<stop offset="0.31" stop-color="#E6E6E6"/>
<stop offset="0.77" stop-color="#CCCCCC"/>
</linearGradient>
<linearGradient id="paint19_linear" x1="84118.3" y1="92911.4" x2="84118.3" y2="110301" gradientUnits="userSpaceOnUse">
<stop stop-color="#F2F2F2"/>
<stop offset="0.31" stop-color="#E6E6E6"/>
<stop offset="0.77" stop-color="#CCCCCC"/>
</linearGradient>
<linearGradient id="paint20_linear" x1="97329.6" y1="60371.7" x2="97329.6" y2="66672.9" gradientUnits="userSpaceOnUse">
<stop stop-color="#F2F2F2"/>
<stop offset="0.31" stop-color="#E6E6E6"/>
<stop offset="0.77" stop-color="#CCCCCC"/>
</linearGradient>
<linearGradient id="paint21_linear" x1="117487" y1="69944.7" x2="117487" y2="78771.4" gradientUnits="userSpaceOnUse">
<stop stop-color="#F2F2F2"/>
<stop offset="0.31" stop-color="#E6E6E6"/>
<stop offset="0.77" stop-color="#CCCCCC"/>
</linearGradient>
<linearGradient id="paint22_linear" x1="52358.1" y1="69985.1" x2="52358.1" y2="78816.9" gradientUnits="userSpaceOnUse">
<stop stop-color="#F2F2F2"/>
<stop offset="0.31" stop-color="#E6E6E6"/>
<stop offset="0.77" stop-color="#CCCCCC"/>
</linearGradient>
<clipPath id="clip0">
<rect width="925.18" height="770.09" fill="white"/>
</clipPath>
</defs>
</svg>
