<svg xmlns="http://www.w3.org/2000/svg" xmlns:xlink="http://www.w3.org/1999/xlink" id="Layer_1" x="0" y="0" version="1.1" viewBox="0 0 512 512" xml:space="preserve" style="enable-background:new 0 0 512 512"><path style="fill:#b3b3b3" d="M434.439,110.654C401.179,45.876,334.359,0.003,255.98,0v101.329	c55.478,0.004,100.593,43.671,100.595,99.151c0,54.805-45.491,102.048-100.595,102.051V512	c70.646-73.617,151.953-154.542,187.529-251.428C461.298,212.121,457.979,156.5,434.439,110.654z"/><path style="fill:#979797" d="M68.492,260.572C104.067,357.458,185.374,438.383,256.02,512V302.531	c-55.103-0.003-100.595-47.247-100.595-102.051c0.002-55.478,45.117-99.147,100.595-99.151V0	c-78.379,0.003-145.199,45.876-178.46,110.654C54.021,156.5,50.702,212.121,68.492,260.572z"/><circle style="fill:#f0f0f0" cx="256" cy="198.773" r="160"/><path style="fill:#d80027" d="M311.652,198.772c0,13.914-24.916,48.695-55.652,48.695s-55.652-34.783-55.652-48.695	c0-30.736,24.916-55.652,55.652-55.652S311.652,168.036,311.652,198.772z"/><path style="fill:#0052b4" d="M311.652,198.772c0,30.736-24.916,55.652-55.652,55.652s-55.652-24.916-55.652-55.652"/><rect width="20.869" height="13.909" x="316.895" y="238.546" transform="matrix(0.7071 -0.7071 0.7071 0.7071 -77.7222 303.3622)"/><rect width="20.869" height="13.909" x="292.308" y="263.156" transform="matrix(0.7071 -0.7071 0.7071 0.7071 -102.326 293.1852)"/><rect width="20.87" height="13.909" x="346.408" y="268.05" transform="matrix(0.7071 -0.7071 0.7071 0.7071 -89.9407 332.873)"/><rect width="20.869" height="13.909" x="321.804" y="292.664" transform="matrix(0.7071 -0.7071 0.7071 0.7071 -114.5517 322.6841)"/><rect width="20.869" height="13.909" x="331.652" y="253.305" transform="matrix(0.7071 -0.7071 0.7071 0.7071 -83.8366 318.1199)"/><rect width="20.869" height="13.909" x="307.065" y="277.89" transform="matrix(0.7071 -0.7071 0.7071 0.7071 -108.4221 307.9353)"/><rect width="55.647" height="13.909" x="301.965" y="118.025" transform="matrix(-0.7071 -0.7071 0.7071 -0.7071 474.6102 446.5495)"/><rect width="20.87" height="13.909" x="292.306" y="120.489" transform="matrix(-0.7071 -0.7071 0.7071 -0.7071 426.6952 431.6304)"/><rect width="20.869" height="13.909" x="316.893" y="145.088" transform="matrix(-0.7071 -0.7071 0.7071 -0.7071 451.2729 491.0078)"/><rect width="20.869" height="13.909" x="321.811" y="90.974" transform="matrix(-0.7071 -0.7071 0.7071 -0.7071 497.933 402.108)"/><rect width="20.869" height="13.909" x="346.39" y="115.565" transform="matrix(-0.7071 -0.7071 0.7071 -0.7071 522.5035 461.468)"/><rect width="55.647" height="13.909" x="139.636" y="280.357" transform="matrix(0.7071 0.7071 -0.7071 0.7071 252.2076 -34.2602)"/><rect width="20.869" height="13.909" x="184.061" y="277.907" transform="matrix(0.7071 0.7071 -0.7071 0.7071 258.3938 -54.0952)"/><rect width="20.87" height="13.909" x="159.473" y="253.311" transform="matrix(0.7071 0.7071 -0.7071 0.7071 233.8003 -43.9136)"/><rect width="55.647" height="13.909" x="169.157" y="250.85" transform="matrix(0.7071 0.7071 -0.7071 0.7071 239.9894 -63.7773)"/><rect width="55.647" height="13.909" x="139.635" y="103.275" transform="matrix(-0.7071 0.7071 -0.7071 -0.7071 363.8148 69.7628)"/><rect width="55.647" height="13.909" x="154.385" y="118.038" transform="matrix(-0.7071 0.7071 -0.7071 -0.7071 399.4321 84.535)"/><rect width="55.647" height="13.909" x="169.141" y="132.798" transform="matrix(-0.7071 0.7071 -0.7071 -0.7071 435.06 99.2965)"/><path style="fill:#c7c7c7" d="M255.929,21.706c-73.745,0-141.451,47.553-166.61,116.807	c-25.343,69.773-3.142,149.835,53.974,197.07c57.236,47.338,140.369,53.625,203.978,15.148	c63.626-38.489,97.228-114.681,82.271-187.573C414.889,91.77,355.517,35.12,283.472,23.842	C274.361,22.416,265.141,21.706,255.929,21.706 M398.59,263.184c-30.241,67.01-105.732,104.802-177.479,88.399	c-55.215-12.621-100.384-55.764-115.778-110.195c-15.749-55.658,1.328-116.804,43.417-156.425	c45.534-42.867,114.172-54.571,171.321-28.799c68.228,30.767,105.971,108.144,87.651,180.845	C405.459,245.986,402.37,254.739,398.59,263.184C396.502,267.811,400.132,259.739,398.59,263.184"/></svg>