<svg width="965" height="807" viewBox="0 0 965 807" fill="none" xmlns="http://www.w3.org/2000/svg">
<g id="reconnaissance 1" clip-path="url(#clip0)">
<path d="M209.414 503.689L225.887 513.155C227.554 514.112 229.41 514.695 231.325 514.862C233.24 515.029 235.169 514.776 236.976 514.121C238.783 513.466 240.426 512.425 241.79 511.07C243.153 509.715 244.205 508.079 244.871 506.275V506.275C245.588 504.335 245.84 502.253 245.606 500.197C245.371 498.141 244.658 496.169 243.522 494.44C242.387 492.71 240.861 491.271 239.068 490.239C237.275 489.207 235.264 488.61 233.199 488.496L213.25 487.399L153.159 469.21L143.471 432.937L118.138 447.167L135.556 488.406L209.414 503.689Z" fill="#FFB8B8"/>
<path d="M130.875 315.42C127.064 319.74 127.752 324.937 130.528 329.155C133.303 333.374 137.921 336.884 141.963 340.606C144.56 342.997 146.962 345.535 148.125 348.412C148.766 349.883 148.975 351.506 148.729 353.091C148.484 354.677 147.792 356.16 146.736 357.367C144.09 360.498 139.159 362.619 134.349 364.436C120.593 369.597 106.4 373.506 91.941 376.114C104.122 361.882 110.219 345.853 109.326 330.414C109.138 327.173 108.657 323.903 109.789 320.656C110.566 318.706 111.795 316.969 113.374 315.587C114.953 314.205 116.838 313.218 118.873 312.706C123.715 311.316 130.092 312.691 130.834 315.864" fill="#2F2E41"/>
<path d="M26.5229 772.15L43.9529 772.908L78.3549 614.001L48.4999 615.284L26.5229 772.15Z" fill="#FFB8B8"/>
<path d="M200.819 738.049L186.42 745.627L96.355 612.001L125.038 599.37L200.819 738.049Z" fill="#FFB8B8"/>
<path d="M100.427 365.44C115.654 365.44 127.997 353.096 127.997 337.87C127.997 322.643 115.654 310.3 100.427 310.3C85.2007 310.3 72.8572 322.643 72.8572 337.87C72.8572 353.096 85.2007 365.44 100.427 365.44Z" fill="#FFB8B8"/>
<path d="M86.39 352.325C86.39 352.325 76.5385 372.786 62.898 372.028C62.898 372.028 37.1325 361.419 28.7967 390.215L19.703 412.95L140.194 433.41C140.194 433.41 133.374 391.731 117.46 390.973C117.46 390.973 99.2727 389.458 101.546 382.637C103.82 375.817 112.155 359.903 112.155 359.903L86.39 352.325Z" fill="#FFB8B8"/>
<path d="M126.554 456.902L108.366 496.308L123.355 560.001L196.355 697.001C196.355 697.001 162.736 727.164 154.355 732.001C147.086 736.198 86.5651 622.447 84.3551 599.001C83.6257 591.264 70.3551 748.001 70.3551 748.001C70.3551 748.001 20.3256 739.746 6.3551 737.001C6.3551 737.001 16.4203 665.71 22.3551 599.001C26.9298 547.581 22.77 500.98 48.4996 478.879L46.2262 434.926L106.851 432.652L126.554 456.902Z" fill="#2F2E41"/>
<path d="M32.3917 801.378L60.2175 805.418C62.3737 806.222 64.7518 806.194 66.8885 805.34C69.0251 804.486 70.7673 802.867 71.7756 800.798V800.798C72.5946 799.118 72.886 797.229 72.6115 795.38C72.3369 793.531 71.5093 791.809 70.2374 790.439L58.4268 777.72L49.9265 759.378C44.8428 754.186 41.3677 756.022 39.4249 764.553L25.8364 760.286L22.2736 784.235C21.7404 787.819 22.4545 791.478 24.2964 794.599C26.1382 797.719 28.9961 800.113 32.3917 801.378V801.378Z" fill="#2F2E41"/>
<path d="M190.994 776.318L219.111 776.22C221.362 776.697 223.71 776.319 225.698 775.16C227.686 774.001 229.171 772.143 229.864 769.949V769.949C230.427 768.167 230.437 766.256 229.893 764.467C229.35 762.679 228.278 761.097 226.818 759.929L213.264 749.086L202.158 732.195C196.365 727.807 193.198 730.135 192.532 738.859L178.463 736.637V760.851C178.463 764.474 179.708 767.988 181.989 770.804C184.27 773.619 187.449 775.566 190.994 776.318V776.318Z" fill="#2F2E41"/>
<path d="M86.5016 295.49C81.8186 293.443 76.2458 294.245 71.7246 296.628C67.2033 299.011 63.5909 302.811 60.4293 306.826C49.5427 320.721 43.1945 337.628 42.2462 355.254C41.9985 360.072 42.2309 365.164 44.7392 369.285C47.4958 373.814 52.5412 376.414 57.5388 378.183C74.2939 384.022 92.6763 383.011 108.69 375.369C100.27 368.542 92.4788 360.973 85.4105 352.754C84.086 351.214 82.701 349.236 83.3747 347.32C83.7988 346.387 84.4564 345.58 85.2839 344.976L101.516 330.88L101.107 336.582C104.335 336.394 107.438 335.263 110.03 333.331C112.623 331.398 114.592 328.748 115.695 325.708C114.913 327.288 116.407 329.228 118.134 329.583C119.86 329.939 121.609 329.227 123.228 328.53C127.155 326.84 131.421 324.828 133.164 320.923C133.712 319.547 133.975 318.073 133.935 316.592C133.896 315.111 133.555 313.653 132.934 312.308C131.673 309.623 129.875 307.226 127.651 305.265C122.191 300.224 115.549 296.642 108.338 294.85C101.128 293.057 93.5813 293.111 86.3972 295.008" fill="#2F2E41"/>
<path d="M80.9938 499.744L93.0992 514.387C94.3241 515.868 95.8574 517.065 97.5923 517.893C99.3272 518.721 101.222 519.161 103.144 519.182C105.066 519.203 106.97 518.804 108.722 518.013C110.475 517.222 112.034 516.059 113.29 514.604C114.642 513.038 115.608 511.177 116.11 509.17C116.612 507.162 116.635 505.065 116.178 503.047C115.722 501.029 114.798 499.147 113.481 497.551C112.164 495.955 110.491 494.691 108.596 493.86L90.2999 485.835L40.4077 447.722L44.0599 410.356L15.3448 414.795L17.1903 459.524L80.9938 499.744Z" fill="#FFB8B8"/>
<path d="M156.108 466.754C156.108 466.754 144.309 423.538 138.084 423.548C131.858 423.559 123.523 422.801 123.523 422.801C123.523 422.801 113.671 394.004 62.898 403.098C12.125 412.192 34.1013 394.762 19.703 401.582C5.30465 408.403 0 456.144 0 456.144C0 456.144 78.0541 430.379 94.7258 444.777C104.3 453.151 114.712 460.515 125.796 466.754C125.796 466.754 118.218 485.699 156.108 466.754Z" fill="#2F2E41"/>
<path d="M426.701 773.948H120.701V775.948H426.701V773.948Z" fill="#3F3D56"/>
<path d="M661.701 428.948C763.873 428.948 846.701 346.12 846.701 243.948C846.701 141.775 763.873 58.9475 661.701 58.9475C559.528 58.9475 476.701 141.775 476.701 243.948C476.701 346.12 559.528 428.948 661.701 428.948Z" fill="#E6E6E6"/>
<path d="M626.701 140.948H320.701V142.948H626.701V140.948Z" fill="#3F3D56"/>
<path d="M921.701 195.948H320.701V197.948H921.701V195.948Z" fill="#3F3D56"/>
<g id="circleAnimation">
<path d="M736.701 392.948C634.14 392.948 550.701 309.508 550.701 206.948C550.701 104.387 634.14 20.9475 736.701 20.9475C839.261 20.9475 922.701 104.387 922.701 206.948C922.701 309.508 839.261 392.948 736.701 392.948ZM736.701 22.9475C635.243 22.9475 552.701 105.49 552.701 206.948C552.701 308.406 635.243 390.948 736.701 390.948C838.159 390.948 920.701 308.406 920.701 206.948C920.701 105.49 838.159 22.9475 736.701 22.9475V22.9475Z" fill="#3F3D56"/>
<path d="M719.54 48.8409C733.027 48.8409 743.961 37.9075 743.961 24.4204C743.961 10.9334 733.027 0 719.54 0C706.053 0 695.12 10.9334 695.12 24.4204C695.12 37.9075 706.053 48.8409 719.54 48.8409Z" fill="#952422"/>
<path d="M551.398 209.66C560.125 209.66 567.2 202.585 567.2 193.858C567.2 185.131 560.125 178.057 551.398 178.057C542.672 178.057 535.597 185.131 535.597 193.858C535.597 202.585 542.672 209.66 551.398 209.66Z" fill="#FF6584"/>
<path d="M928.623 230.206C948.553 230.206 964.71 214.049 964.71 194.118C964.71 174.188 948.553 158.031 928.623 158.031C908.692 158.031 892.536 174.188 892.536 194.118C892.536 214.049 908.692 230.206 928.623 230.206Z" fill="#952422"/>
</g>
<path d="M421.364 336.508H311.865V338.508H421.364C426.755 338.508 431.925 340.65 435.737 344.462C439.549 348.274 441.691 353.444 441.691 358.835C441.691 364.226 439.549 369.396 435.737 373.208C431.925 377.02 426.755 379.162 421.364 379.162H255.673C250.282 379.162 245.112 377.02 241.3 373.208C237.488 369.396 235.346 364.226 235.346 358.835C235.346 353.444 237.488 348.274 241.3 344.462C245.112 340.65 250.282 338.508 255.673 338.508H261.865V336.508H255.673C249.752 336.508 244.073 338.861 239.886 343.048C235.699 347.235 233.346 352.914 233.346 358.835C233.346 364.756 235.699 370.435 239.886 374.622C244.073 378.809 249.752 381.162 255.673 381.162H421.364C427.285 381.162 432.964 378.809 437.151 374.622C441.338 370.435 443.691 364.756 443.691 358.835C443.691 352.914 441.338 347.235 437.151 343.048C432.964 338.861 427.285 336.508 421.364 336.508Z" fill="#3F3D56"/>
<path d="M421.364 405.508H311.865V407.508H421.364C426.755 407.508 431.925 409.65 435.737 413.462C439.549 417.274 441.691 422.444 441.691 427.835C441.691 433.226 439.549 438.396 435.737 442.208C431.925 446.02 426.755 448.162 421.364 448.162H255.673C250.282 448.162 245.112 446.02 241.3 442.208C237.488 438.396 235.346 433.226 235.346 427.835C235.346 422.444 237.488 417.274 241.3 413.462C245.112 409.65 250.282 407.508 255.673 407.508H261.865V405.508H255.673C249.752 405.508 244.073 407.861 239.886 412.048C235.699 416.235 233.346 421.914 233.346 427.835C233.346 433.756 235.699 439.435 239.886 443.622C244.073 447.809 249.752 450.162 255.673 450.162H421.364C427.285 450.162 432.964 447.809 437.151 443.622C441.338 439.435 443.691 433.756 443.691 427.835C443.691 421.914 441.338 416.235 437.151 412.048C432.964 407.861 427.285 405.508 421.364 405.508Z" fill="#3F3D56"/>
<path d="M421.364 474.508H311.865V476.508H421.364C426.755 476.508 431.925 478.65 435.737 482.462C439.549 486.274 441.691 491.444 441.691 496.835C441.691 502.226 439.549 507.396 435.737 511.208C431.925 515.02 426.755 517.162 421.364 517.162H255.673C250.282 517.162 245.112 515.02 241.3 511.208C237.488 507.396 235.346 502.226 235.346 496.835C235.346 491.444 237.488 486.274 241.3 482.462C245.112 478.65 250.282 476.508 255.673 476.508H261.865V474.508H255.673C249.752 474.508 244.073 476.861 239.886 481.048C235.699 485.235 233.346 490.914 233.346 496.835C233.346 502.756 235.699 508.435 239.886 512.622C244.073 516.809 249.752 519.162 255.673 519.162H421.364C427.285 519.162 432.964 516.809 437.151 512.622C441.338 508.435 443.691 502.756 443.691 496.835C443.691 490.914 441.338 485.235 437.151 481.048C432.964 476.861 427.285 474.508 421.364 474.508V474.508Z" fill="#3F3D56"/>
<path d="M274.224 331.225C272.665 331.251 271.178 331.889 270.084 333.001C268.99 334.113 268.377 335.611 268.377 337.171C268.377 338.731 268.99 340.228 270.084 341.34C271.178 342.453 272.665 343.091 274.224 343.117H300.31C301.884 343.138 303.402 342.534 304.531 341.437C305.661 340.341 306.31 338.842 306.335 337.268C306.361 335.694 305.762 334.174 304.669 333.041C303.576 331.909 302.079 331.255 300.505 331.225C300.44 331.223 300.375 331.223 300.31 331.225H274.224Z" fill="#952422"/>
<path d="M274.224 401.225C272.665 401.251 271.178 401.889 270.084 403.001C268.99 404.113 268.377 405.611 268.377 407.171C268.377 408.731 268.99 410.228 270.084 411.34C271.178 412.453 272.665 413.091 274.224 413.117H300.31C301.884 413.138 303.402 412.534 304.531 411.437C305.661 410.341 306.31 408.842 306.335 407.268C306.361 405.694 305.762 404.174 304.669 403.041C303.576 401.909 302.079 401.255 300.505 401.225C300.44 401.223 300.375 401.223 300.31 401.225H274.224Z" fill="#FF6584"/>
<path d="M274.224 469.224C272.664 469.25 271.177 469.888 270.083 471C268.989 472.113 268.375 473.61 268.375 475.171C268.375 476.731 268.989 478.228 270.083 479.341C271.177 480.453 272.664 481.091 274.224 481.117H300.31C301.886 481.141 303.407 480.538 304.539 479.442C305.671 478.345 306.321 476.844 306.347 475.268C306.373 473.692 305.772 472.17 304.677 471.037C303.582 469.904 302.081 469.252 300.505 469.224C300.44 469.223 300.375 469.223 300.31 469.224H274.224Z" fill="#3F3D56"/>
<path d="M263.878 352.889C262.318 352.915 260.831 353.553 259.737 354.665C258.643 355.777 258.03 357.275 258.03 358.835C258.03 360.395 258.643 361.893 259.737 363.005C260.831 364.117 262.318 364.755 263.878 364.781H412.964C413.746 364.796 414.523 364.656 415.251 364.37C415.979 364.084 416.644 363.657 417.206 363.114C417.769 362.571 418.219 361.922 418.531 361.204C418.842 360.487 419.009 359.715 419.022 358.933C419.035 358.151 418.894 357.374 418.606 356.646C418.318 355.919 417.889 355.256 417.345 354.694C416.8 354.133 416.15 353.684 415.432 353.375C414.713 353.065 413.941 352.9 413.159 352.889C413.094 352.888 413.029 352.888 412.964 352.889H263.878Z" fill="#E6E6E6"/>
<path d="M263.878 421.889C262.318 421.915 260.831 422.553 259.737 423.665C258.643 424.777 258.03 426.275 258.03 427.835C258.03 429.395 258.643 430.893 259.737 432.005C260.831 433.117 262.318 433.755 263.878 433.781H412.964C413.746 433.796 414.523 433.656 415.251 433.37C415.979 433.084 416.644 432.657 417.206 432.114C417.769 431.571 418.219 430.922 418.531 430.204C418.842 429.487 419.009 428.715 419.022 427.933C419.035 427.151 418.894 426.374 418.606 425.646C418.318 424.919 417.889 424.256 417.345 423.694C416.8 423.133 416.15 422.684 415.432 422.375C414.713 422.065 413.941 421.9 413.159 421.889C413.094 421.888 413.029 421.888 412.964 421.889H263.878Z" fill="#E6E6E6"/>
<path d="M263.878 490.889C262.318 490.915 260.831 491.553 259.737 492.665C258.643 493.777 258.03 495.275 258.03 496.835C258.03 498.395 258.643 499.893 259.737 501.005C260.831 502.117 262.318 502.755 263.878 502.781H412.964C413.746 502.796 414.523 502.656 415.251 502.37C415.979 502.084 416.644 501.657 417.206 501.114C417.769 500.571 418.219 499.922 418.531 499.204C418.842 498.487 419.009 497.715 419.022 496.933C419.035 496.151 418.894 495.374 418.606 494.646C418.318 493.919 417.889 493.256 417.345 492.694C416.8 492.133 416.15 491.684 415.432 491.375C414.713 491.065 413.941 490.9 413.159 490.889C413.094 490.888 413.029 490.888 412.964 490.889H263.878Z" fill="#E6E6E6"/>
<path d="M415.349 714.254C413.795 704.233 410.763 694.498 406.351 685.367L405.708 684.037L400.932 689.333L404.471 681.445L404.24 680.987C401.117 674.805 397.655 668.799 393.872 662.998L393.17 661.924L392.234 662.961L392.889 661.5L392.561 661.008C387.875 653.979 384.275 649.534 384.24 649.489L383.221 648.237L382.567 649.73C382.447 650.004 370.548 677.423 368.971 704.516L368.947 704.939L376.955 714.619L368.788 709.492L368.802 711.353C368.827 714.537 369.044 717.717 369.451 720.875C369.811 723.592 370.234 726.244 370.721 728.832C371.493 728.856 372.244 729.09 372.893 729.509C372.328 726.618 371.842 723.646 371.433 720.593C371.117 718.157 370.919 715.681 370.84 713.213L386.637 723.131L370.993 704.221C372.417 681.314 381.258 658.235 383.739 652.144C385.071 653.872 387.584 657.225 390.59 661.705L385.126 673.887L392.916 665.249C396.294 670.506 399.405 675.931 402.238 681.501L393.823 700.258L405.2 687.643C409.174 696.188 411.925 705.251 413.371 714.563C415.363 729.604 414.974 744.053 412.277 755.249C409.693 765.974 405.14 772.566 399.784 773.336C398.682 773.489 397.56 773.422 396.484 773.14C395.62 773.754 394.581 774.071 393.523 774.044H393.231C394.892 774.966 396.755 775.466 398.655 775.501C399.124 775.5 399.593 775.467 400.057 775.4C406.354 774.495 411.383 767.519 414.217 755.757C416.974 744.307 417.378 729.576 415.349 714.254Z" fill="#3F3D56"/>
<path d="M397.726 774.709C389.489 774.709 377.613 770.178 365.834 761.93C364.1 760.706 362.444 759.375 360.877 757.945L359.557 756.74L364.546 755.303L357.904 755.06L357.623 754.766C345.173 741.727 337.426 723.309 337.348 723.125L336.743 721.67L338.317 721.742C338.474 721.749 342.217 721.925 347.842 722.723L348.192 722.773V722.77L349.426 722.958C354.019 723.656 358.569 724.612 363.055 725.822L363.534 725.952L365.031 729.638L364.803 726.332L366.176 726.728C372.684 728.607 378.865 731.472 384.504 735.225C402.418 747.769 412.33 763.447 407.09 770.929C405.299 773.487 402.002 774.708 397.726 774.709ZM363.583 757.662C364.677 758.588 365.816 759.47 366.984 760.293C383.39 771.783 401.007 776.127 405.451 769.783C409.895 763.437 399.786 748.368 383.377 736.877C378.314 733.51 372.799 730.878 366.996 729.063L367.883 741.98L362.055 727.624C358.217 726.606 354.29 725.768 350.359 725.128L351.003 734.503L346.991 724.623C343.883 724.197 341.378 723.965 339.854 723.847C341.932 728.41 348.797 742.498 358.791 753.091L377.121 753.762L363.583 757.662Z" fill="#3F3D56"/>
</g>
<defs>
<clipPath id="clip0">
<rect width="964.71" height="806.003" fill="white"/>
</clipPath>
</defs>
</svg>
