<svg viewBox="0 0 1081 837" fill="none" xmlns="http://www.w3.org/2000/svg">
<g opacity="0.1">
<path opacity="0.1" d="M193.19 506.89C193.19 506.89 150.48 481.43 138.85 444.35C134.087 428.754 124.387 415.127 111.21 405.52C104.918 401.001 98.2231 397.071 91.21 393.78" fill="#952422"/>
<path opacity="0.1" d="M83.7601 370.42C87.7601 374.71 91.4901 394.35 91.4901 394.35C91.4901 394.35 72.2001 389.1 68.2301 384.81C66.4117 382.736 65.4743 380.035 65.6173 377.28C65.7602 374.526 66.9721 371.935 68.9953 370.061C71.0185 368.186 73.6933 367.175 76.4507 367.242C79.208 367.309 81.8304 368.449 83.7601 370.42Z" fill="#952422"/>
<path opacity="0.1" d="M118.61 382.35C119.61 388.11 112.09 406.63 112.09 406.63C112.09 406.63 98.7499 391.74 97.7499 385.98C97.4733 384.595 97.4767 383.168 97.7598 381.784C98.043 380.4 98.6003 379.086 99.3988 377.921C100.197 376.755 101.221 375.761 102.41 374.997C103.598 374.234 104.927 373.715 106.319 373.473C107.711 373.231 109.138 373.27 110.514 373.587C111.891 373.905 113.19 374.494 114.335 375.321C115.481 376.149 116.449 377.197 117.183 378.404C117.917 379.611 118.402 380.953 118.61 382.35V382.35Z" fill="#952422"/>
<path opacity="0.1" d="M155.65 423.43C153.65 428.91 137.76 441.1 137.76 441.1C137.76 441.1 133.76 421.51 135.81 416.04C136.267 414.7 136.987 413.465 137.93 412.408C138.872 411.352 140.016 410.495 141.295 409.888C142.575 409.281 143.962 408.937 145.377 408.876C146.791 408.815 148.204 409.038 149.53 409.532C150.857 410.026 152.071 410.781 153.101 411.753C154.131 412.724 154.955 413.893 155.526 415.188C156.096 416.484 156.401 417.881 156.423 419.297C156.444 420.712 156.181 422.118 155.65 423.43V423.43Z" fill="#952422"/>
<path opacity="0.1" d="M176.66 460.86C175.58 466.61 162.02 481.35 162.02 481.35C162.02 481.35 154.77 462.72 155.86 456.98C156.118 455.614 156.643 454.313 157.404 453.15C158.165 451.987 159.147 450.985 160.295 450.202C161.444 449.418 162.735 448.869 164.095 448.585C165.456 448.301 166.859 448.287 168.225 448.545C169.591 448.803 170.892 449.328 172.055 450.089C173.218 450.85 174.22 451.832 175.003 452.981C175.787 454.129 176.336 455.42 176.62 456.781C176.905 458.141 176.918 459.544 176.66 460.91V460.86Z" fill="#952422"/>
<path opacity="0.1" d="M96.55 422.51C102.39 422.65 119.6 412.51 119.6 412.51C119.6 412.51 102.9 401.51 97.05 401.37C94.2775 401.359 91.6112 402.436 89.6239 404.369C87.6365 406.303 86.4866 408.938 86.4212 411.71C86.3557 414.482 87.3799 417.169 89.2737 419.194C91.1676 421.219 93.78 422.42 96.55 422.54V422.51Z" fill="#952422"/>
<path opacity="0.1" d="M121.68 465.98C127.3 464.36 140.68 449.5 140.68 449.5C140.68 449.5 121.46 444.01 115.84 445.63C113.201 446.456 110.99 448.282 109.679 450.718C108.368 453.153 108.062 456.004 108.826 458.662C109.59 461.32 111.364 463.574 113.768 464.941C116.172 466.309 119.015 466.682 121.69 465.98H121.68Z" fill="#952422"/>
<path opacity="0.1" d="M151.9 504.87C157.72 504.23 173.41 491.87 173.41 491.87C173.41 491.87 155.41 483.21 149.58 483.87C148.144 483.949 146.738 484.32 145.45 484.96C144.162 485.601 143.018 486.497 142.088 487.594C141.158 488.692 140.462 489.967 140.041 491.343C139.621 492.719 139.486 494.166 139.644 495.596C139.802 497.026 140.25 498.408 140.96 499.659C141.671 500.91 142.629 502.003 143.776 502.871C144.923 503.739 146.235 504.364 147.632 504.708C149.029 505.051 150.481 505.107 151.9 504.87V504.87Z" fill="#952422"/>
<path opacity="0.1" d="M83.7601 370.42C87.7601 374.71 91.4901 394.35 91.4901 394.35C91.4901 394.35 72.2001 389.1 68.2301 384.81C66.4117 382.736 65.4743 380.035 65.6173 377.28C65.7602 374.526 66.9721 371.935 68.9953 370.061C71.0185 368.186 73.6933 367.175 76.4507 367.242C79.208 367.309 81.8304 368.449 83.7601 370.42Z" fill="#952422"/>
<path opacity="0.1" d="M118.61 382.35C119.61 388.11 112.09 406.63 112.09 406.63C112.09 406.63 98.7499 391.74 97.7499 385.98C97.4733 384.595 97.4767 383.168 97.7598 381.784C98.043 380.4 98.6003 379.086 99.3988 377.921C100.197 376.755 101.221 375.761 102.41 374.997C103.598 374.234 104.927 373.715 106.319 373.473C107.711 373.231 109.138 373.27 110.514 373.587C111.891 373.905 113.19 374.494 114.335 375.321C115.481 376.149 116.449 377.197 117.183 378.404C117.917 379.611 118.402 380.953 118.61 382.35V382.35Z" fill="#952422"/>
<path opacity="0.1" d="M155.65 423.43C153.65 428.91 137.76 441.1 137.76 441.1C137.76 441.1 133.76 421.51 135.81 416.04C136.267 414.7 136.987 413.465 137.93 412.408C138.872 411.352 140.016 410.495 141.295 409.888C142.575 409.281 143.962 408.937 145.377 408.876C146.791 408.815 148.204 409.038 149.53 409.532C150.857 410.026 152.071 410.781 153.101 411.753C154.131 412.724 154.955 413.893 155.526 415.188C156.096 416.484 156.401 417.881 156.423 419.297C156.444 420.712 156.181 422.118 155.65 423.43V423.43Z" fill="#952422"/>
<path opacity="0.1" d="M176.66 460.86C175.58 466.61 162.02 481.35 162.02 481.35C162.02 481.35 154.77 462.72 155.86 456.98C156.118 455.614 156.643 454.313 157.404 453.15C158.165 451.987 159.147 450.985 160.295 450.202C161.444 449.418 162.735 448.869 164.095 448.585C165.456 448.301 166.859 448.287 168.225 448.545C169.591 448.803 170.892 449.328 172.055 450.089C173.218 450.85 174.22 451.832 175.003 452.981C175.787 454.129 176.336 455.42 176.62 456.781C176.905 458.141 176.918 459.544 176.66 460.91V460.86Z" fill="#952422"/>
<path opacity="0.1" d="M96.55 422.51C102.39 422.65 119.6 412.51 119.6 412.51C119.6 412.51 102.9 401.51 97.05 401.37C94.2775 401.359 91.6112 402.436 89.6239 404.369C87.6365 406.303 86.4866 408.938 86.4212 411.71C86.3557 414.482 87.3799 417.169 89.2737 419.194C91.1676 421.219 93.78 422.42 96.55 422.54V422.51Z" fill="#952422"/>
<path opacity="0.1" d="M121.68 465.98C127.3 464.36 140.68 449.5 140.68 449.5C140.68 449.5 121.46 444.01 115.84 445.63C113.201 446.456 110.99 448.282 109.679 450.718C108.368 453.153 108.062 456.004 108.826 458.662C109.59 461.32 111.364 463.574 113.768 464.941C116.172 466.309 119.015 466.682 121.69 465.98H121.68Z" fill="#952422"/>
<path opacity="0.1" d="M151.9 504.87C157.72 504.23 173.41 491.87 173.41 491.87C173.41 491.87 155.41 483.21 149.58 483.87C148.144 483.949 146.738 484.32 145.45 484.96C144.162 485.601 143.018 486.497 142.088 487.594C141.158 488.692 140.462 489.967 140.041 491.343C139.621 492.719 139.486 494.166 139.644 495.596C139.802 497.026 140.25 498.408 140.96 499.659C141.671 500.91 142.629 502.003 143.776 502.871C144.923 503.739 146.235 504.364 147.632 504.708C149.029 505.051 150.481 505.107 151.9 504.87V504.87Z" fill="#952422"/>
</g>
<path d="M711.51 44.3999H214.79C203.744 44.3999 194.79 53.3542 194.79 64.3999V737.84C194.79 748.886 203.744 757.84 214.79 757.84H711.51C722.556 757.84 731.51 748.886 731.51 737.84V64.3999C731.51 53.3542 722.556 44.3999 711.51 44.3999Z" fill="#535461"/>
<path d="M704.24 111.88H222.06V690.35H704.24V111.88Z" fill="#F6F7F9"/>
<path d="M460.97 83.6701C464.587 83.6701 467.52 80.7375 467.52 77.1201C467.52 73.5026 464.587 70.5701 460.97 70.5701C457.352 70.5701 454.42 73.5026 454.42 77.1201C454.42 80.7375 457.352 83.6701 460.97 83.6701Z" fill="#F6F7F9"/>
<path d="M460.97 742.57C471.817 742.57 480.61 733.777 480.61 722.93C480.61 712.083 471.817 703.29 460.97 703.29C450.123 703.29 441.33 712.083 441.33 722.93C441.33 733.777 450.123 742.57 460.97 742.57Z" fill="#F6F7F9"/>
<g opacity="0.2">
<path opacity="0.2" d="M704.24 111.88H222.06V140.71H704.24V111.88Z" fill="#952422"/>
</g>
<path d="M237.14 132.45C240.537 132.45 243.29 129.696 243.29 126.3C243.29 122.903 240.537 120.15 237.14 120.15C233.743 120.15 230.99 122.903 230.99 126.3C230.99 129.696 233.743 132.45 237.14 132.45Z" fill="#F6F7F9"/>
<path d="M252.81 132.45C256.206 132.45 258.96 129.696 258.96 126.3C258.96 122.903 256.206 120.15 252.81 120.15C249.413 120.15 246.66 122.903 246.66 126.3C246.66 129.696 249.413 132.45 252.81 132.45Z" fill="#F6F7F9"/>
<path d="M268.47 132.45C271.867 132.45 274.62 129.696 274.62 126.3C274.62 122.903 271.867 120.15 268.47 120.15C265.074 120.15 262.32 122.903 262.32 126.3C262.32 129.696 265.074 132.45 268.47 132.45Z" fill="#F6F7F9"/>
<path d="M685.47 281.93H236.46V283.43H685.47V281.93Z" fill="#DCE0ED"/>
<path d="M685.47 316.76H236.46V318.26H685.47V316.76Z" fill="#DCE0ED"/>
<path d="M685.47 351.6H236.46V353.1H685.47V351.6Z" fill="#DCE0ED"/>
<path d="M685.47 386.43H236.46V387.93H685.47V386.43Z" fill="#DCE0ED"/>
<path d="M685.47 421.26H236.46V422.76H685.47V421.26Z" fill="#DCE0ED"/>
<g opacity="0.2">
<path opacity="0.2" d="M685.47 422.76H235.91V354.26L277.14 374.58L319.81 380.37L357.25 369.08L402.42 334.05L425.14 320.93L441.75 317.73L457.64 318.58L483.77 331.49L519.3 354.12L547.18 357.7L569.28 350.08L616.14 311.71L640.06 303.18L665.09 307.05L685.47 318.82V422.76Z" fill="#952422"/>
</g>
<path d="M314.27 380.35C273.78 380.35 236.37 355.59 235.9 355.27L237.02 353.61C237.6 354 295.18 392.09 344.11 373.01C361.95 366.01 374.65 355.23 386.94 344.76C399.77 333.83 411.88 323.51 428.4 319.03C447.34 313.9 468.04 318.54 483.77 331.47C497.22 342.52 524 360.26 552.29 354.96C566.71 352.25 578.86 341.72 591.73 330.57C616.4 309.19 641.92 287.08 686.06 318.8L684.89 320.42C642.03 289.62 617.13 311.21 593.04 332.08C579.96 343.41 567.61 354.08 552.66 356.92C523.56 362.38 496.22 344.28 482.5 333.01C467.27 320.5 447.25 316.01 428.92 320.96C412.84 325.32 400.92 335.5 388.23 346.28C375.82 356.86 362.99 367.79 344.84 374.87C335.081 378.587 324.712 380.446 314.27 380.35V380.35Z" fill="#952422"/>
<path d="M452.52 328.76C458.667 328.76 463.65 323.777 463.65 317.63C463.65 311.483 458.667 306.5 452.52 306.5C446.373 306.5 441.39 311.483 441.39 317.63C441.39 323.777 446.373 328.76 452.52 328.76Z" fill="#952422"/>
<g opacity="0.2">
<path opacity="0.2" d="M597.7 170.35H457.3C456.695 170.35 456.115 170.59 455.688 171.018C455.26 171.445 455.02 172.025 455.02 172.63V267.58C455.021 268.037 455.158 268.482 455.415 268.86C455.672 269.237 456.036 269.529 456.461 269.697C456.885 269.865 457.35 269.902 457.796 269.803C458.242 269.703 458.647 269.472 458.96 269.14L483.29 243.19C483.503 242.963 483.76 242.781 484.045 242.658C484.331 242.534 484.639 242.47 484.95 242.47H597.7C598.305 242.47 598.885 242.23 599.312 241.802C599.74 241.375 599.98 240.795 599.98 240.19V172.61C599.975 172.009 599.732 171.434 599.305 171.011C598.878 170.588 598.301 170.35 597.7 170.35V170.35Z" fill="#952422"/>
</g>
<path d="M567.47 187.93H487.52V197.93H567.47V187.93Z" fill="#F6F7F9"/>
<path d="M509.47 210.09H487.52V220.09H509.47V210.09Z" fill="#F6F7F9"/>
<g opacity="0.2">
<path opacity="0.2" d="M296.33 494.32H274.38V504.32H296.33V494.32Z" fill="#952422"/>
</g>
<g opacity="0.2">
<path opacity="0.2" d="M296.33 513.65H274.38V523.65H296.33V513.65Z" fill="#952422"/>
</g>
<g opacity="0.2">
<path opacity="0.2" d="M296.33 532.98H274.38V542.98H296.33V532.98Z" fill="#952422"/>
</g>
<g opacity="0.2">
<path opacity="0.2" d="M296.33 552.32H274.38V562.32H296.33V552.32Z" fill="#952422"/>
</g>
<g opacity="0.2">
<path opacity="0.2" d="M296.33 571.65H274.38V581.65H296.33V571.65Z" fill="#952422"/>
</g>
<g opacity="0.2">
<path opacity="0.2" d="M296.33 590.98H274.38V600.98H296.33V590.98Z" fill="#952422"/>
</g>
<g opacity="0.2">
<path opacity="0.2" d="M296.33 610.32H274.38V620.32H296.33V610.32Z" fill="#952422"/>
</g>
<g opacity="0.2">
<path opacity="0.2" d="M296.33 629.65H274.38V639.65H296.33V629.65Z" fill="#952422"/>
</g>
<g opacity="0.2">
<path opacity="0.2" d="M337.66 639.65H315.71V649.65H337.66V639.65Z" fill="#952422"/>
</g>
<g opacity="0.2">
<path opacity="0.2" d="M376.33 639.65H354.38V649.65H376.33V639.65Z" fill="#952422"/>
</g>
<g opacity="0.2">
<path opacity="0.2" d="M415 639.65H393.05V649.65H415V639.65Z" fill="#952422"/>
</g>
<g opacity="0.2">
<path opacity="0.2" d="M453.66 639.65H431.71V649.65H453.66V639.65Z" fill="#952422"/>
</g>
<g opacity="0.2">
<path opacity="0.2" d="M492.33 639.65H470.38V649.65H492.33V639.65Z" fill="#952422"/>
</g>
<g opacity="0.2">
<path opacity="0.2" d="M531 639.65H509.05V649.65H531V639.65Z" fill="#952422"/>
</g>
<g opacity="0.2">
<path opacity="0.2" d="M569.66 639.65H547.71V649.65H569.66V639.65Z" fill="#952422"/>
</g>
<g opacity="0.2">
<path opacity="0.2" d="M608.33 639.65H586.38V649.65H608.33V639.65Z" fill="#952422"/>
</g>
<g opacity="0.2">
<path opacity="0.2" d="M647 639.65H625.05V649.65H647V639.65Z" fill="#952422"/>
</g>
<path d="M567.47 210.09H534.14V220.09H567.47V210.09Z" fill="#F6F7F9"/>
<path d="M337.66 566.98H315.71V629.65H337.66V566.98Z" fill="#952422"/>
<path d="M376.33 537.98H354.38V629.65H376.33V537.98Z" fill="#952422"/>
<path d="M415 513.65H393.05V629.65H415V513.65Z" fill="#952422"/>
<path d="M453.66 526.26H431.71V629.64H453.66V526.26Z" fill="#952422"/>
<path d="M492.33 504.32H470.38V629.65H492.33V504.32Z" fill="#952422"/>
<g opacity="0.2">
<path opacity="0.2" d="M531 552.32H509.05V629.65H531V552.32Z" fill="#952422"/>
</g>
<g opacity="0.2">
<path opacity="0.2" d="M569.66 552.32H547.71V629.65H569.66V552.32Z" fill="#952422"/>
</g>
<g opacity="0.2">
<path opacity="0.2" d="M608.33 552.32H586.38V629.65H608.33V552.32Z" fill="#952422"/>
</g>
<g opacity="0.2">
<path opacity="0.2" d="M647 552.32H625.05V629.65H647V552.32Z" fill="#952422"/>
</g>
<path d="M767.986 643.761C776.846 669.241 766.506 710.591 761.706 729.051C756.906 747.511 755.426 769.681 755.426 769.681C736.596 772.631 722.936 768.931 722.936 768.931L730.686 730.931C725.146 708.411 730.686 648.221 730.686 648.221C730.686 648.221 718.136 624.961 717.026 589.511C715.936 554.611 707.336 543.341 707.026 542.991C689.306 552.221 666.776 651.191 666.776 651.191C668.626 675.191 666.406 712.111 659.026 732.051C654.55 744.717 652.666 758.153 653.486 771.561C650.906 773.741 647.316 774.111 643.436 773.491C632.926 771.741 620.316 762.661 620.316 762.661C620.316 762.661 624.316 654.851 627.316 650.781C630.316 646.711 627.316 623.451 627.316 623.451L632.106 585.791C632.106 585.791 631.376 521.901 638.386 510.791C644.446 501.221 645.836 484.411 646.106 480.001C646.106 479.301 646.166 478.911 646.166 478.911L656.846 466.111C656.846 466.111 760.246 458.361 767.996 466.111C769.906 468.021 771.076 472.341 771.776 477.791C773.906 494.541 771.466 521.861 771.466 521.861C771.466 521.861 768.366 542.171 763.936 562.861C761.268 575.273 761.268 588.11 763.936 600.521C762.466 615.061 763.842 629.748 767.986 643.761V643.761Z" fill="#65617D"/>
<path d="M761.526 805.681C756.906 811.771 729.766 809.181 725.146 807.291C722.326 806.121 722.546 800.821 723.306 795.351C723.786 791.871 724.496 788.351 724.786 785.741C725.526 779.091 722.566 765.611 722.566 765.611C722.566 765.611 728.666 772.071 730.136 765.611C730.786 762.791 733.056 761.341 735.406 760.611C738.572 759.66 741.974 759.873 744.996 761.211C749.786 763.291 757.796 767.731 756.356 773.731C754.356 782.211 761.526 794.241 761.526 794.241C762.082 794.946 762.533 795.728 762.866 796.561C763.499 798.058 763.709 799.701 763.472 801.309C763.236 802.917 762.563 804.429 761.526 805.681V805.681Z" fill="#A27772"/>
<path opacity="0.1" d="M761.526 805.681C756.906 811.771 729.766 809.181 725.146 807.291C722.326 806.121 722.546 800.821 723.306 795.351C726.216 796.711 731.176 797.851 739.436 797.081C741.367 796.901 743.308 796.841 745.246 796.901C751.121 797.171 757.007 797.054 762.866 796.551C763.501 798.05 763.712 799.694 763.475 801.304C763.239 802.914 762.565 804.428 761.526 805.681V805.681Z" fill="black"/>
<path opacity="0.1" d="M666.806 651.151C668.656 675.151 666.436 712.071 659.056 732.011C654.58 744.677 652.696 758.113 653.516 771.521C650.936 773.701 647.346 774.071 643.466 773.451C645.696 757.851 655.186 690.771 661.316 637.761C668.196 577.391 700.596 535.851 700.596 535.851L707.056 542.961C689.316 552.181 666.806 651.151 666.806 651.151Z" fill="black"/>
<path d="M750.446 263.061L745.936 285.211L723.856 322.321L696.626 310.691C696.626 310.691 659.626 271.921 682.876 266.381C685.662 265.786 688.292 264.614 690.596 262.941C695.166 259.501 696.596 254.491 696.596 249.591C696.596 241.501 692.816 233.701 692.816 233.701L740.446 218.701C738.479 224.96 737.329 231.447 737.026 238.001C736.666 251.001 741.486 257.361 745.436 260.411C746.915 261.617 748.618 262.517 750.446 263.061V263.061Z" fill="#FBBEBE"/>
<path opacity="0.1" d="M740.476 218.751C738.509 225.01 737.359 231.497 737.056 238.051C736.191 239.084 735.266 240.066 734.286 240.991C729.37 245.691 723.273 248.972 716.643 250.486C710.012 252 703.095 251.691 696.626 249.591C696.626 241.501 692.846 233.701 692.846 233.701L740.476 218.751Z" fill="black"/>
<path d="M745.936 212.661C745.935 220.111 743.723 227.393 739.582 233.585C735.441 239.778 729.556 244.603 722.672 247.451C715.788 250.299 708.214 251.041 700.909 249.583C693.603 248.126 686.893 244.534 681.629 239.263C676.365 233.992 672.782 227.278 671.334 219.97C669.887 212.662 670.639 205.089 673.496 198.209C676.352 191.329 681.186 185.451 687.384 181.318C693.582 177.185 700.867 174.983 708.316 174.991C713.265 174.975 718.169 175.939 722.743 177.827C727.318 179.715 731.474 182.49 734.971 185.992C738.468 189.494 741.238 193.653 743.12 198.231C745.002 202.808 745.959 207.712 745.936 212.661V212.661Z" fill="#FBBEBE"/>
<path opacity="0.1" d="M750.446 263.061L745.936 285.211L723.856 322.321L696.626 310.691C696.626 310.691 659.626 271.921 682.876 266.381C685.662 265.786 688.292 264.614 690.596 262.941C686.396 274.491 703.736 298.511 703.736 298.511C705.736 301.511 710.386 299.611 710.386 299.611C721.546 297.931 742.116 265.801 745.466 260.461C746.94 261.646 748.632 262.529 750.446 263.061V263.061Z" fill="black"/>
<path opacity="0.1" d="M771.766 477.851C765.216 479.341 728.936 487.381 715.176 485.371C700.046 483.151 670.606 481.681 670.606 481.681C670.606 481.681 651.866 482.681 646.096 480.061C646.096 479.361 646.156 478.971 646.156 478.971L656.836 466.171C656.836 466.171 760.236 458.421 767.986 466.171C769.896 468.061 771.066 472.381 771.766 477.851Z" fill="black"/>
<path d="M703.736 299.611C703.736 299.611 684.256 272.611 691.596 262.121L658.686 275.611C658.686 275.611 638.876 273.211 631.686 302.771C630.539 307.683 630.124 312.738 630.456 317.771C630.716 322.231 630.116 330.081 625.036 340.231C616.906 356.481 618.756 393.771 635.376 397.471C651.996 401.171 657.896 399.311 657.896 399.311C657.896 399.311 655.686 466.891 646.086 474.641C636.486 482.391 670.556 480.551 670.556 480.551C670.556 480.551 699.996 482.031 715.136 484.241C730.276 486.451 772.736 476.491 772.736 476.491C772.736 476.491 766.456 448.051 764.246 429.961C762.036 411.871 756.856 373.341 756.856 373.341L794.526 322.341C794.526 322.341 801.166 291.511 777.906 277.851C754.646 264.191 745.906 260.851 745.906 260.851C745.906 260.851 722.566 298.851 710.386 300.721C710.386 300.721 705.756 302.581 703.736 299.611Z" fill="#7C7CDD"/>
<path opacity="0.1" d="M660.536 310.321C660.536 310.321 660.166 322.511 662.376 327.321C664.586 332.131 672.716 358.711 672.716 358.711H654.256C654.256 358.711 664.256 348.001 663.486 342.831C662.716 337.661 660.536 310.321 660.536 310.321Z" fill="black"/>
<path d="M715.186 402.271C715.186 402.271 674.406 392.271 670.606 383.801C666.806 375.331 656.316 356.311 656.316 356.311L660.616 350.511L680.456 366.081C680.456 366.081 704.086 384.911 715.166 386.761C726.246 388.611 715.186 402.271 715.186 402.271Z" fill="#FBBEBE"/>
<path opacity="0.05" d="M715.186 402.271C715.186 402.271 674.406 392.271 670.606 383.801C666.806 375.331 656.316 356.311 656.316 356.311L660.616 350.511L680.456 366.081C680.456 366.081 704.086 384.911 715.166 386.761C726.246 388.611 715.186 402.271 715.186 402.271Z" fill="black"/>
<path d="M750.446 354.271V376.391H746.886C729.318 376.395 712.039 380.868 696.676 389.391L690.016 393.091L688.226 394.091L676.776 368.311L687.486 358.711H688.036C690.656 358.961 701.986 359.911 706.786 358.291C711.346 356.741 717.006 351.831 730.436 355.291C737.056 356.981 742.706 364.401 749.126 362.081L750.446 354.271Z" fill="#FBBEBE"/>
<path opacity="0.1" d="M786.076 314.021L793.466 322.321V342.451C793.466 342.451 787.186 405.961 767.246 412.981C747.306 420.001 711.716 408.911 711.716 408.911C711.716 408.911 702.516 384.541 706.816 383.071C711.116 381.601 744.816 372.691 744.816 372.691C744.816 372.691 744.346 335.431 751.726 324.351C751.726 324.351 746.926 289.651 763.546 288.911C780.166 288.171 786.076 314.021 786.076 314.021Z" fill="black"/>
<path d="M787.186 314.021L794.576 322.321V342.451C794.576 342.451 788.316 405.961 768.316 412.981C748.316 420.001 712.776 408.911 712.776 408.911C712.776 408.911 703.586 384.541 707.886 383.071C712.186 381.601 745.886 372.691 745.886 372.691C745.886 372.691 745.406 335.431 752.796 324.351C752.796 324.351 747.996 289.651 764.616 288.911C781.236 288.171 787.186 314.021 787.186 314.021Z" fill="#7C7CDD"/>
<path opacity="0.1" d="M735.606 228.661C735.756 226.231 735.806 223.661 734.766 221.471C733.726 219.281 731.286 217.531 728.906 218.091C725.746 218.831 724.386 222.941 721.286 223.931C718.676 224.761 715.826 222.931 714.586 220.471C713.346 218.011 713.306 215.171 713.296 212.471C713.296 209.391 713.296 206.301 713.296 203.221C713.296 199.861 713.186 196.221 711.116 193.601C708.546 190.311 702.496 188.881 698.456 189.011C695.765 189.043 693.184 190.085 691.226 191.931C689.066 193.761 686.566 195.121 683.616 194.631C682.391 194.446 681.243 193.917 680.305 193.107C679.367 192.296 678.678 191.237 678.316 190.051V189.931C681.456 185.783 685.421 182.331 689.961 179.791C694.502 177.252 699.519 175.681 704.697 175.177C709.874 174.673 715.1 175.247 720.045 176.863C724.99 178.479 729.546 181.103 733.427 184.568C737.307 188.032 740.428 192.263 742.592 196.994C744.756 201.725 745.916 206.853 746 212.055C746.084 217.256 745.089 222.419 743.078 227.217C741.067 232.014 738.084 236.344 734.316 239.931C734.958 236.202 735.389 232.439 735.606 228.661Z" fill="black"/>
<path d="M683.596 193.491C682.37 193.304 681.222 192.773 680.284 191.961C679.346 191.149 678.657 190.088 678.296 188.901C677.986 187.711 678.066 186.441 677.716 185.251C676.856 182.351 673.716 180.841 671.716 178.641C667.556 174.221 667.826 166.961 670.776 161.641C673.156 157.361 677.776 153.751 682.586 154.581C685.586 155.101 688.156 157.231 691.186 157.421C694.216 157.611 696.756 155.971 699.416 154.761C705.818 151.862 713.015 151.224 719.826 152.951C721.92 153.372 723.862 154.35 725.446 155.781C726.518 157.132 727.52 158.537 728.446 159.991C731.896 164.381 738.056 165.241 743.546 166.231C749.036 167.221 755.236 169.391 757.046 174.671C758.236 178.171 757.046 181.971 756.396 185.611C756.165 186.353 756.215 187.154 756.536 187.861C757.396 189.281 759.536 188.691 761.156 189.031C764.276 189.681 765.076 193.691 765.156 196.871C765.29 200.511 765.39 204.151 765.456 207.791C765.642 209.479 765.424 211.187 764.82 212.774C764.217 214.361 763.246 215.783 761.986 216.921L749.796 231.571C744.386 238.071 738.646 245.641 739.736 254.021C737.176 255.171 734.136 252.951 733.296 250.271C732.456 247.591 733.136 244.711 733.696 241.961C734.683 237.207 735.328 232.388 735.626 227.541C735.776 225.101 735.826 222.541 734.786 220.351C733.746 218.161 731.306 216.351 728.926 216.961C725.766 217.701 724.406 221.811 721.306 222.801C718.706 223.631 715.846 221.801 714.606 219.341C713.366 216.881 713.326 214.041 713.316 211.341V202.081C713.316 198.731 713.206 195.081 711.136 192.461C708.566 189.171 702.516 187.741 698.476 187.871C695.786 187.904 693.205 188.947 691.246 190.791C689.046 192.621 686.546 193.971 683.596 193.491Z" fill="#7C5C5C"/>
<path opacity="0.1" d="M692.106 309.401L703.666 356.901C703.666 356.901 712.786 356.851 692.106 309.401Z" fill="black"/>
<path opacity="0.1" d="M731.616 301.461C731.616 301.461 716.476 326.261 722.386 351.891L725.206 352.101C725.206 352.101 720.166 340.231 731.616 301.461Z" fill="black"/>
<path opacity="0.1" d="M741.216 441.781C741.216 441.781 759.806 435.631 761.156 449.901C761.156 449.901 757.646 440.121 741.216 441.781Z" fill="black"/>
<path opacity="0.1" d="M687.486 359.851C687.486 359.851 683.796 385.701 690.486 396.041C690.486 396.041 676.966 401.581 657.986 400.471L655.736 359.851H687.486Z" fill="black"/>
<path opacity="0.1" d="M690.016 393.081L688.226 394.081L676.776 368.301L687.486 358.701H688.036C687.866 359.941 684.886 382.141 690.016 393.081Z" fill="black"/>
<path d="M687.486 358.701C687.486 358.701 683.796 384.541 690.486 394.881C690.486 394.881 676.966 400.421 657.986 399.311L645.066 358.701H687.486Z" fill="#7C7CDD"/>
<path d="M655.546 789.961C655.332 791.803 654.512 793.521 653.213 794.844C651.915 796.168 650.213 797.022 648.376 797.271C638.376 798.771 614.196 802.591 608.096 805.491C600.346 809.181 569.696 806.601 568.216 802.911C567.799 801.419 567.99 799.823 568.746 798.471C569.813 796.215 571.562 794.35 573.746 793.141C574.451 792.735 575.195 792.4 575.966 792.141C581.736 790.211 592.636 786.141 595.586 781.841C595.586 781.841 609.176 769.951 613.046 763.521C613.777 762.259 614.806 761.195 616.044 760.424C617.282 759.653 618.691 759.199 620.146 759.101C623.386 758.951 626.986 760.581 628.456 767.671C628.456 767.671 646.176 777.781 650.966 768.911C650.966 768.911 651.706 782.531 654.646 786.251C655.035 786.779 655.315 787.379 655.469 788.016C655.624 788.653 655.65 789.314 655.546 789.961V789.961Z" fill="#A27772"/>
<path opacity="0.1" d="M655.546 789.961C655.332 791.803 654.512 793.521 653.213 794.844C651.915 796.168 650.213 797.022 648.376 797.271C638.376 798.771 614.196 802.591 608.096 805.491C600.346 809.181 569.696 806.601 568.216 802.911C567.799 801.419 567.99 799.823 568.746 798.471C569.813 796.215 571.562 794.35 573.746 793.141C578.746 796.461 589.836 799.701 614.236 795.891C637.506 792.261 649.026 788.701 654.646 786.271C655.033 786.797 655.311 787.393 655.465 788.026C655.62 788.66 655.647 789.317 655.546 789.961V789.961Z" fill="black"/>
<g opacity="0.1">
<path opacity="0.1" d="M756.316 186.151V185.971C756.846 183.201 757.636 180.341 757.456 177.581C757.219 179.847 756.839 182.094 756.316 184.311C756.177 184.917 756.177 185.546 756.316 186.151V186.151Z" fill="black"/>
<path opacity="0.1" d="M734.756 220.711C735.339 222.043 735.648 223.478 735.666 224.931C735.838 222.927 735.526 220.91 734.756 219.051C733.756 216.841 731.286 215.101 728.906 215.661C725.746 216.401 724.386 220.511 721.286 221.501C718.676 222.331 715.826 220.501 714.576 218.041C713.326 215.581 713.306 212.741 713.296 210.041C713.296 206.951 713.296 203.871 713.296 200.781C713.296 197.431 713.186 193.781 711.116 191.161C708.546 187.871 702.486 186.441 698.456 186.571C695.765 186.603 693.184 187.645 691.226 189.491C689.056 191.331 686.566 192.681 683.616 192.201C682.39 192.014 681.242 191.483 680.304 190.671C679.366 189.859 678.677 188.798 678.316 187.611C678.006 186.421 678.086 185.151 677.736 183.961C676.866 181.061 673.736 179.551 671.736 177.351C669.792 175.208 668.687 172.434 668.626 169.541C668.472 171.248 668.669 172.969 669.203 174.597C669.738 176.226 670.6 177.728 671.736 179.011C673.816 181.211 676.906 182.731 677.736 185.631C678.086 186.811 678.006 188.081 678.316 189.271C678.677 190.458 679.366 191.519 680.304 192.331C681.242 193.143 682.39 193.674 683.616 193.861C686.616 194.341 689.056 192.991 691.226 191.151C693.184 189.305 695.765 188.263 698.456 188.231C702.456 188.101 708.546 189.541 711.116 192.821C713.186 195.461 713.286 199.091 713.296 202.441C713.296 205.531 713.296 208.611 713.296 211.701C713.296 214.441 713.296 217.291 714.576 219.701C715.856 222.111 718.676 223.991 721.286 223.161C724.386 222.161 725.746 218.061 728.906 217.321C731.316 216.771 733.726 218.501 734.756 220.711Z" fill="black"/>
<path opacity="0.1" d="M765.106 210.541C764.433 212.438 763.362 214.17 761.966 215.621C757.906 220.508 753.843 225.391 749.776 230.271C744.646 236.441 739.206 243.581 739.606 251.451C739.976 244.231 745.006 237.661 749.776 231.931L761.966 217.291C763.36 215.835 764.43 214.1 765.106 212.201C765.408 210.891 765.516 209.543 765.426 208.201C765.416 208.991 765.309 209.777 765.106 210.541V210.541Z" fill="black"/>
<path opacity="0.1" d="M733.316 248.971C733.119 248.321 732.999 247.65 732.956 246.971C732.852 248.196 732.974 249.43 733.316 250.611C734.156 253.291 737.206 255.501 739.766 254.351C739.696 253.811 739.656 253.271 739.636 252.731C737.056 253.791 734.096 251.611 733.316 248.971Z" fill="black"/>
</g>
<path opacity="0.1" d="M610.576 766.851C610.576 766.851 614.436 773.641 628.416 767.661Z" fill="black"/>
<path opacity="0.1" d="M728.816 768.521C728.816 768.521 740.876 782.721 756.076 773.171Z" fill="black"/>
<path opacity="0.1" d="M763.926 600.551C763.926 600.551 755.396 605.881 755.126 608.931C754.856 611.981 759.526 606.711 759.526 606.711L763.926 600.551Z" fill="black"/>
<path opacity="0.1" d="M767.316 641.381C764.353 643.849 760.668 645.287 756.816 645.481C750.446 645.761 750.976 654.071 755.136 651.571C759.296 649.071 767.316 641.381 767.316 641.381Z" fill="black"/>
<path opacity="0.1" d="M768.906 646.711C768.906 646.711 764.816 666.811 761.496 662.931Z" fill="black"/>
</svg>
